<svg width="32" height="31" viewBox="0 0 32 31" fill="none" xmlns="http://www.w3.org/2000/svg">
<circle cx="15" cy="15" r="11" fill="white"/>
<path d="M15.9928 10.8962C14.5675 10.9024 13.4121 12.0594 13.4183 13.4716C13.4245 14.8816 14.5923 16.0285 16.0154 16.0203C17.4407 16.0142 18.5961 14.8612 18.5899 13.4471C18.5838 12.0349 17.416 10.8901 15.9928 10.8962Z" fill="#5218FF"/>
<path d="M29.2092 7.73953L19.8916 1.22778C17.5313 -0.42108 14.3472 -0.408836 12.0013 1.26247L2.74339 7.85585C0.399563 9.52715 -0.572568 12.4739 0.337775 15.1553L3.93384 25.7443C4.84418 28.4257 7.42898 30.2338 10.3371 30.2215L21.8173 30.1705C24.7255 30.1583 27.2938 28.3278 28.1815 25.6382L31.6808 15.0186C32.5664 12.329 31.5695 9.39043 29.2092 7.73953ZM17.4736 22.8527C17.4675 23.6363 16.8228 24.2669 16.0319 24.2607C15.241 24.2546 14.6046 23.6159 14.6108 22.8323L14.617 21.8426C14.617 21.6058 14.8126 21.4181 15.0516 21.4181L17.0514 21.4324C17.2903 21.4324 17.4798 21.6262 17.4798 21.863L17.4736 22.8527ZM19.8072 17.4245L19.7948 17.4327L19.5332 17.6633L17.8814 19.1101C17.7084 19.2611 17.4881 19.3448 17.2594 19.3448L14.7982 19.355C14.5675 19.355 14.3472 19.2754 14.1721 19.1264L12.5636 17.7429L12.1825 17.4164L12.1661 17.3959H12.1619C11.0498 16.3328 10.3866 14.8166 10.4772 13.1534C10.6296 10.3965 12.9178 8.13338 15.7044 7.98645C18.8762 7.81912 21.5208 10.3189 21.5352 13.4309C21.5414 15.0002 20.8782 16.4164 19.8092 17.4245H19.8072Z" fill="#5218FF"/>
</svg>
