<svg width="161" height="46" viewBox="0 0 161 46" fill="none" xmlns="http://www.w3.org/2000/svg">
<g clip-path="url(#clip0_532_433)">
<path d="M32.7715 11.2337C27.1964 11.2337 22.655 15.786 22.655 21.3911C22.655 26.9962 27.189 31.5485 32.7715 31.5485C38.3541 31.5485 42.888 26.9962 42.888 21.3911C42.888 15.786 38.3541 11.2337 32.7715 11.2337V11.2337ZM32.7715 26.3809C30.0319 26.3809 27.7945 24.1418 27.7945 21.3837C27.7945 18.6256 30.0246 16.3866 32.7715 16.3866C35.5185 16.3866 37.7485 18.6256 37.7485 21.3837C37.7485 24.1418 35.5185 26.3809 32.7715 26.3809Z" fill="#9296BB"/>
<path d="M64.0072 11.078H61.0683C60.4628 11.078 59.968 11.5748 59.968 12.1827V12.5535C58.4986 11.7157 56.8002 11.2337 54.991 11.2337C49.4159 11.2337 44.8745 15.786 44.8745 21.3911C44.8745 26.9963 49.4085 31.5486 54.991 31.5486C56.8002 31.5486 58.4986 31.0666 59.968 30.2288V35.3372C59.968 38.0953 57.7011 40.3269 54.9467 40.2676C52.3031 40.2083 50.1469 37.8951 50.1469 35.2408V34.0842C50.1469 33.4762 49.6522 32.9795 49.0466 32.9795H46.1077C45.5022 32.9795 45.0074 33.4762 45.0074 34.0842V35.1889C45.0074 40.6013 49.1943 45.1684 54.5775 45.4205C60.3372 45.6874 65.1075 41.0609 65.1075 35.3372V12.1827C65.1075 11.5748 64.6128 11.078 64.0072 11.078V11.078ZM54.991 26.3809C52.2514 26.3809 50.014 24.1418 50.014 21.3837C50.014 18.6257 52.244 16.3866 54.991 16.3866C57.738 16.3866 59.968 18.6257 59.968 21.3837C59.968 24.1418 57.738 26.3809 54.991 26.3809Z" fill="#9296BB"/>
<path d="M100.404 11.1225C98.5287 11.0854 96.7712 11.5822 95.2648 12.4571C95.2501 11.8491 94.7553 11.3598 94.1498 11.3598H91.3143C90.694 11.3598 90.1992 11.8639 90.1992 12.4793V43.7893C90.1992 44.4121 90.7014 44.9089 91.3143 44.9089H94.1498C94.7701 44.9089 95.2648 44.4047 95.2648 43.7893V29.8433C96.7269 30.6885 98.4179 31.1778 100.22 31.1778C105.869 31.1778 110.432 26.4476 110.196 20.7313C109.982 15.4969 105.618 11.2263 100.404 11.1299V11.1225ZM100.22 26.0769C97.5097 26.0769 95.3092 23.8675 95.3092 21.1465C95.3092 18.4255 97.5097 16.216 100.22 16.216C102.93 16.216 105.13 18.4255 105.13 21.1465C105.13 23.8675 102.93 26.0769 100.22 26.0769Z" fill="#9296BB"/>
<path d="M121.93 11.1225C116.421 11.1225 111.946 15.6229 111.946 21.1465C111.946 26.67 116.428 31.1704 121.93 31.1704C127.431 31.1704 131.913 26.67 131.913 21.1465C131.913 15.6229 127.431 11.1225 121.93 11.1225V11.1225ZM121.93 26.0769C119.22 26.0769 117.019 23.8675 117.019 21.1465C117.019 18.4255 119.22 16.216 121.93 16.216C124.64 16.216 126.84 18.4255 126.84 21.1465C126.84 23.8675 124.64 26.0769 121.93 26.0769Z" fill="#9296BB"/>
<path d="M143.632 11.1225C138.123 11.1225 133.648 15.6229 133.648 21.1465C133.648 26.67 138.131 31.1704 143.632 31.1704C149.133 31.1704 153.616 26.67 153.616 21.1465C153.616 15.6229 149.133 11.1225 143.632 11.1225V11.1225ZM143.632 26.0769C140.922 26.0769 138.721 23.8675 138.721 21.1465C138.721 18.4255 140.922 16.216 143.632 16.216C146.342 16.216 148.543 18.4255 148.543 21.1465C148.543 23.8675 146.342 26.0769 143.632 26.0769Z" fill="#9296BB"/>
<path d="M159.885 0.572144H157.042C156.426 0.572144 155.927 1.07338 155.927 1.69168V30.0954C155.927 30.7137 156.426 31.2149 157.042 31.2149H159.885C160.501 31.2149 161 30.7137 161 30.0954V1.69168C161 1.07338 160.501 0.572144 159.885 0.572144Z" fill="#9296BB"/>
<path d="M19.1254 10.9594H16.1864C15.5809 10.9594 15.0861 11.4561 15.0861 12.0641V12.4348C13.6167 11.597 11.9183 11.1151 10.1091 11.1151C4.53396 11.1151 0 15.6748 0 21.2725C0 26.8702 4.53396 31.4299 10.1165 31.4299C11.9257 31.4299 13.624 30.948 15.0935 30.1102V35.2185C15.0935 37.9766 12.8265 40.2083 10.0722 40.149C7.42861 40.0897 5.27239 37.7764 5.27239 35.1222V33.9655C5.27239 33.3576 4.77765 32.8608 4.17213 32.8608H1.22579C0.620282 32.8608 0.125533 33.3576 0.125533 33.9655V35.0703C0.125533 40.4826 4.31243 45.0497 9.69559 45.3018C15.4554 45.5687 20.2256 40.9423 20.2256 35.2185V12.0641C20.2256 11.4561 19.7309 10.9594 19.1254 10.9594V10.9594ZM10.1091 26.2622C7.36954 26.2622 5.13209 24.0231 5.13209 21.2651C5.13209 18.507 7.36215 16.2679 10.1091 16.2679C12.8561 16.2679 15.0861 18.507 15.0861 21.2651C15.0861 24.0231 12.8561 26.2622 10.1091 26.2622V26.2622Z" fill="#9296BB"/>
<path d="M79.5287 35.7005L75.8514 35.656C75.4157 35.656 75.0538 36.0045 75.0465 36.4419L75.0243 38.288C75.0095 39.7486 76.1689 40.9423 77.6236 40.9571C79.0783 40.972 80.2672 39.8079 80.2819 38.3473L80.3041 36.5012C80.3041 36.0638 79.957 35.7005 79.5214 35.6931L79.5287 35.7005Z" fill="#9296BB"/>
<path d="M77.1659 10.6184C72.0412 10.8704 67.8173 15.0669 67.5146 20.2049C67.33 23.304 68.541 26.1362 70.5791 28.1306L70.6086 28.1677L71.3101 28.7831L74.2564 31.3706C74.574 31.6524 74.9801 31.8006 75.401 31.8006H79.9276C80.3485 31.8006 80.7546 31.6449 81.0722 31.3706L84.1219 28.6867L84.2179 28.6051L84.6092 28.2567L84.6314 28.2418C86.603 26.3735 87.8362 23.734 87.8362 20.8128C87.8362 15.0075 82.9921 10.3218 77.1585 10.6109L77.1659 10.6184ZM77.668 16.0381C80.2894 16.0381 82.4235 18.1808 82.4235 20.8202C82.4235 23.4597 80.2894 25.595 77.668 25.595C75.0466 25.595 72.9125 23.4523 72.9125 20.8202C72.9125 18.1882 75.0466 16.0381 77.668 16.0381Z" fill="#9296BB"/>
</g>
<defs>
<clipPath id="clip0_532_433">
<rect width="161" height="44.8557" fill="white" transform="translate(0 0.572144)"/>
</clipPath>
</defs>
</svg>
