<svg width="44" height="36" viewBox="0 0 44 36" fill="none" xmlns="http://www.w3.org/2000/svg">
<g clip-path="url(#clip0_178_430)">
<path d="M35.2909 0C35.2564 0 35.2219 0 35.1854 0C35.1643 0 35.1432 0 35.1221 0C35.1029 0 35.0857 0 35.0665 0C35.0646 0 35.0607 0 35.0588 0C35.055 0 35.0531 0 35.0492 0C32.7856 0.042168 30.6602 0.944947 29.0584 2.54542L22.001 9.59898L14.9416 2.54925C13.336 0.944947 11.2125 0.0460015 8.94886 0.00383346C8.90282 0 8.85678 0 8.81266 0C8.80882 0 8.80691 0 8.80499 0C8.79731 0 8.79156 0 8.78389 0C8.78005 0 8.77813 0 8.77429 0C8.75128 0 8.73017 0 8.70907 0C3.90757 0 0 3.90438 0 8.70195V27.3C0 32.0975 3.90757 36.0019 8.70907 36.0019C12.8718 36.0019 16.3592 33.0674 17.2148 29.1611C18.6113 30.0677 20.24 30.5546 21.9434 30.5546C21.9626 30.5546 21.9799 30.5546 21.9971 30.5546C22.0182 30.5546 22.0393 30.5546 22.0604 30.5546C23.762 30.5546 25.3868 30.0677 26.7833 29.163C27.6388 33.0693 31.1263 36.0038 35.289 36.0038C40.0905 36.0038 43.9981 32.0995 43.9981 27.3019V8.70195C43.9981 3.90438 40.0905 0 35.289 0H35.2909ZM31.9627 5.45118C32.8125 4.60207 33.9424 4.1248 35.1413 4.10563H35.1701C35.1854 4.10563 35.2008 4.10563 35.2161 4.10563C36.4457 4.10563 37.6025 4.5829 38.4715 5.45118C40.2651 7.24332 40.2651 10.1606 38.4715 11.9546L30.4472 19.9723C30.0943 18.3661 29.2943 16.8902 28.1011 15.6999L24.9033 12.5047L31.9608 5.45118H31.9627ZM8.70907 31.8963C6.17116 31.8963 4.10708 29.8339 4.10708 27.298V16.3344L13.3111 25.5308V27.298C13.3111 29.8339 11.247 31.8963 8.70907 31.8963ZM18.69 25.1034L5.53045 11.9527C4.66146 11.0844 4.18189 9.93057 4.18189 8.70195C4.18189 7.47333 4.66146 6.31945 5.53045 5.45118C6.39561 4.58673 7.54658 4.10947 8.77046 4.10563H8.7858C8.7858 4.10563 8.80499 4.10563 8.81266 4.10563C10.0308 4.1133 11.176 4.59057 12.0392 5.45118L25.2007 18.6019C26.9943 20.394 26.9943 23.3113 25.2007 25.1034C24.3317 25.9717 23.1769 26.4509 21.9472 26.4509C20.7176 26.4509 19.5628 25.9717 18.6938 25.1034H18.69ZM35.2909 31.8963C32.753 31.8963 30.6889 29.8339 30.6889 27.298V25.5308L39.8929 16.3344V27.298C39.8929 29.8339 37.8288 31.8963 35.2909 31.8963Z" fill="#9296BB"/>
</g>
<defs>
<clipPath id="clip0_178_430">
<rect width="44" height="36" fill="white"/>
</clipPath>
</defs>
</svg>
