<svg width="571" height="95" viewBox="0 0 571 95" fill="none" xmlns="http://www.w3.org/2000/svg">
<g clip-path="url(#clip0_273_101)">
<path d="M188.589 68.2188C187.548 68.2188 186.705 67.3705 186.705 66.3236V45.5258C186.705 40.0613 184.292 37.2546 179.991 37.2546C175.69 37.2546 173.052 40.0613 173.052 45.5258V66.3236C173.052 67.3705 172.209 68.2188 171.169 68.2188H163.472C162.432 68.2188 161.588 67.3705 161.588 66.3236V45.5258C161.588 40.0613 159.175 37.2546 154.874 37.2546C150.573 37.2546 147.936 40.0613 147.936 45.5258V66.3236C147.936 67.3705 147.093 68.2188 146.052 68.2188H138.356C137.315 68.2188 136.472 67.3705 136.472 66.3236V29.4346C136.472 28.3877 137.315 27.5393 138.356 27.5393H146.052C147.093 27.5393 147.936 28.3877 147.936 29.4346V33.3062C150.578 29.8903 154.045 26.7767 159.857 26.7767C165.136 26.7767 169.137 29.1277 171.249 33.2295C174.797 29.0555 179.017 26.7767 184.525 26.7767C193.051 26.7767 198.178 31.9389 198.178 41.7309V66.3236C198.178 67.3705 197.335 68.2188 196.294 68.2188H188.598H188.589Z" fill="white"/>
<path d="M231.511 66.3236V62.4519C228.869 65.8678 225.474 68.9814 219.666 68.9814C210.992 68.9814 205.937 63.2145 205.937 53.8783V29.439C205.937 28.3922 206.78 27.5438 207.821 27.5438H215.517C216.558 27.5438 217.401 28.3922 217.401 29.439V50.2368C217.401 55.7013 219.966 58.5081 224.339 58.5081C228.712 58.5081 231.506 55.7013 231.506 50.2368V29.439C231.506 28.3922 232.35 27.5438 233.39 27.5438H241.087C242.127 27.5438 242.97 28.3922 242.97 29.439V66.3281C242.97 67.375 242.127 68.2233 241.087 68.2233H233.39C232.35 68.2233 231.506 67.375 231.506 66.3281L231.511 66.3236Z" fill="white"/>
<path d="M251.882 66.3236V14.7105C251.882 13.6636 252.725 12.8153 253.766 12.8153H261.462C262.503 12.8153 263.346 13.6636 263.346 14.7105V66.3236C263.346 67.3705 262.503 68.2188 261.462 68.2188H253.766C252.725 68.2188 251.882 67.3705 251.882 66.3236Z" fill="white"/>
<path d="M285.901 68.9047C278.887 68.9047 274.133 66.098 274.133 56.6851V37.408H271.19C270.15 37.408 269.307 36.5597 269.307 35.5128V29.4391C269.307 28.3922 270.15 27.5438 271.19 27.5438H274.133V19.0424C274.133 17.9956 274.976 17.1472 276.016 17.1472H283.713C284.753 17.1472 285.596 17.9956 285.596 19.0424V27.5438H293.217C294.257 27.5438 295.1 28.3922 295.1 29.4391V35.5128C295.1 36.5597 294.257 37.408 293.217 37.408H285.596V54.7898C285.596 57.4477 286.727 58.7382 289.292 58.7382C290.463 58.7382 291.562 58.5758 292.593 58.2734C293.773 57.9305 294.948 58.8285 294.948 60.0649V65.4301C294.948 66.1521 294.54 66.8064 293.898 67.1313C291.723 68.2323 289.198 68.9047 285.897 68.9047H285.901Z" fill="white"/>
<path d="M302.196 66.3236V29.4345C302.196 28.3876 303.039 27.5393 304.079 27.5393H311.776C312.816 27.5393 313.66 28.3876 313.66 29.4345V66.3236C313.66 67.3704 312.816 68.2188 311.776 68.2188H304.079C303.039 68.2188 302.196 67.3704 302.196 66.3236Z" fill="white"/>
<path d="M336.744 68.9814C331.6 68.9814 325.89 67.4111 320.872 63.932C320.033 63.3499 319.809 62.1947 320.365 61.3374L323.253 56.8701C323.814 55.9992 324.971 55.7465 325.841 56.3015C329.739 58.8014 333.717 60.1055 337.049 60.1055C340.382 60.1055 341.875 58.8917 341.875 57.0686V56.9152C341.875 54.4108 337.951 53.576 333.502 52.2088C327.846 50.5392 321.432 47.8814 321.432 39.9891V39.8357C321.432 31.5644 328.07 26.9347 336.22 26.9347C340.754 26.9347 345.643 28.2974 349.742 30.662C350.63 31.1764 350.94 32.318 350.442 33.2205L347.845 37.9495C347.351 38.852 346.23 39.1904 345.32 38.7121C341.875 36.8981 338.538 35.8151 335.991 35.8151C333.201 35.8151 331.766 37.029 331.766 38.6219V38.7753C331.766 41.0541 335.614 42.1145 339.987 43.6307C345.643 45.5304 352.209 48.2604 352.209 55.6969V55.8503C352.209 64.8842 345.495 68.9814 336.744 68.9814Z" fill="white"/>
<path d="M359.075 66.3236V29.4345C359.075 28.3876 359.919 27.5393 360.959 27.5393H368.656C369.696 27.5393 370.539 28.3876 370.539 29.4345V66.3236C370.539 67.3704 369.696 68.2188 368.656 68.2188H360.959C359.919 68.2188 359.075 67.3704 359.075 66.3236Z" fill="white"/>
<path d="M397.549 80.5151C391.687 80.5151 386.129 79.3058 381.353 77.0993C380.411 76.6615 379.998 75.5379 380.429 74.5858L382.766 69.4372C383.205 68.4625 384.362 68.0518 385.313 68.5257C388.91 70.3126 392.628 71.3279 397.248 71.3279C405.092 71.3279 408.788 67.5329 408.788 60.2454V58.2734C405.393 62.3707 401.697 64.8751 395.584 64.8751C386.156 64.8751 377.63 57.9666 377.63 45.9004V45.7469C377.63 33.604 386.304 26.7722 395.584 26.7722C401.845 26.7722 405.541 29.43 408.636 32.8459V29.43C408.636 28.3832 409.479 27.5348 410.519 27.5348H418.216C419.256 27.5348 420.099 28.3832 420.099 29.43V59.0315C420.099 74.3647 412.556 80.5106 397.544 80.5106L397.549 80.5151ZM408.788 45.7515C408.788 40.2102 404.487 36.3385 398.907 36.3385C393.328 36.3385 389.099 40.2102 389.099 45.7515V45.9049C389.099 51.5228 393.324 55.3178 398.907 55.3178C404.491 55.3178 408.788 51.4461 408.788 45.9049V45.7515Z" fill="white"/>
<path d="M307.928 23.5413C311.098 23.5413 313.669 20.9553 313.669 17.7654C313.669 14.5755 311.098 11.9895 307.928 11.9895C304.757 11.9895 302.187 14.5755 302.187 17.7654C302.187 20.9553 304.757 23.5413 307.928 23.5413Z" fill="white"/>
<path d="M364.807 23.5413C367.978 23.5413 370.548 20.9553 370.548 17.7654C370.548 14.5755 367.978 11.9895 364.807 11.9895C361.637 11.9895 359.067 14.5755 359.067 17.7654C359.067 20.9553 361.637 23.5413 364.807 23.5413Z" fill="white"/>
<path d="M435.986 10.6404H432.115C431.372 10.6404 430.77 11.2465 430.77 11.9941V69.9832C430.77 70.7309 431.372 71.337 432.115 71.337H435.986C436.729 71.337 437.331 70.7309 437.331 69.9832V11.9941C437.331 11.2465 436.729 10.6404 435.986 10.6404Z" fill="white"/>
<path d="M463.851 27.4806C457.59 27.4806 452.827 29.3126 448.992 31.1041C448.338 31.4109 448.037 32.1825 448.32 32.8549L449.741 36.2708C450.042 36.9973 450.899 37.3132 451.594 36.9522C455.72 34.8313 459.541 33.8431 463.614 33.8431C469.05 33.8431 475.531 35.7564 475.531 44.8805V44.8895C472.404 44.1404 468.7 43.5268 463.533 43.5268C452.02 43.5268 444.579 49.235 444.579 58.0658V58.2237C444.579 62.5647 446.49 66.2333 450.105 68.8369C453.15 71.03 457.294 72.2889 461.479 72.2889C468.215 72.2889 472.727 69.5364 475.531 66.8424V69.9786C475.531 70.7276 476.132 71.3323 476.876 71.3323H480.666C481.411 71.3323 482.012 70.7276 482.012 69.9786V44.718C482.012 33.7619 475.392 27.4761 463.847 27.4761L463.851 27.4806ZM463.3 49.7313C468.395 49.7313 472.49 50.503 475.611 51.261V54.8123C475.611 61.1523 469.637 65.9309 461.717 65.9309C456.577 65.9309 451.378 63.2054 451.378 57.9891V57.8311C451.378 52.7592 455.832 49.7313 463.295 49.7313H463.3Z" fill="white"/>
<path d="M513.044 27.1602C507.115 27.1602 502.006 29.6195 497.808 34.4794V11.9895C497.808 11.2404 497.207 10.6357 496.462 10.6357H492.592C491.847 10.6357 491.246 11.2404 491.246 11.9895V69.9786C491.246 70.7277 491.847 71.3323 492.592 71.3323H496.462C497.207 71.3323 497.808 70.7277 497.808 69.9786V65.2541C501.916 69.9244 507.025 72.2844 513.044 72.2844C523.333 72.2844 533.971 63.8462 533.971 49.7223V49.5644C533.971 35.5398 523.333 27.1602 513.044 27.1602ZM527.096 49.7223V49.8803C527.096 59.4286 521.292 65.8452 512.649 65.8452C503.338 65.8452 497.57 57.5198 497.57 49.8036V49.6456C497.57 39.7363 505.397 33.604 512.649 33.604C520.884 33.604 527.096 40.535 527.096 49.7268V49.7223Z" fill="white"/>
<path d="M556.764 46.1214C550.768 44.3841 546.525 42.8995 546.525 39.5558V39.3979C546.525 36.0316 549.736 33.6806 554.338 33.6806C558.137 33.6806 562.272 35.0389 565.995 37.5072C566.623 37.9223 567.47 37.7418 567.869 37.101L569.924 33.8431C570.314 33.2204 570.143 32.3991 569.533 31.993C565.232 29.1095 559.473 27.3181 554.495 27.3181C546.027 27.3181 539.887 32.5976 539.887 39.8717V40.0296C539.887 48.152 547.902 50.4849 554.342 52.353L554.683 52.4523C560.958 54.2302 564.362 55.8411 564.362 59.2525V59.4105C564.362 63.1512 560.922 65.7639 555.997 65.7639C551.073 65.7639 546.7 64.0673 542.367 60.7236C541.771 60.2633 540.919 60.3851 540.47 60.9898L538.178 64.0898C537.748 64.6719 537.851 65.4887 538.407 65.9489C543.058 69.7619 549.709 72.131 555.76 72.131C564.591 72.131 571 66.5852 571 58.9412V58.7832C571 50.1419 562.084 47.624 556.76 46.1214H556.764Z" fill="white"/>
<path d="M22.8246 95C10.2394 95 0 84.6981 0 72.0363V22.9637C0 10.3019 10.2394 0 22.8246 0C22.9143 0 23.0085 0 23.1026 0C23.2148 0 23.3314 0 23.448 0.00451242L23.1475 10.8298C23.1026 10.8298 23.0623 10.8298 23.0219 10.8298H22.8246C16.1732 10.8298 10.7642 16.2718 10.7642 22.9592V72.0363C10.7642 78.7282 16.1732 84.1702 22.8246 84.1702C29.4759 84.1702 34.8849 78.7282 34.8849 72.0363V65.1278H45.6491V72.0363C45.6491 84.6981 35.4097 95 22.8246 95Z" fill="url(#paint0_linear_273_101)"/>
<path d="M92.4913 95C79.9062 95 69.6667 84.6982 69.6667 72.0363V65.1323H80.4309V72.0363C80.4309 78.7282 85.8399 84.1702 92.4913 84.1702C99.1427 84.1702 104.552 78.7282 104.552 72.0363V22.9637C104.552 16.2718 99.1427 10.8298 92.4913 10.8298H92.294C92.2536 10.8298 92.2088 10.8298 92.1684 10.8298L91.8679 0.00902902C91.9845 0.00902902 92.1011 0.00902902 92.2132 0.0045166C92.3074 0.0045166 92.4016 0.0045166 92.4913 0.0045166C105.076 0.0045166 115.316 10.3064 115.316 22.9682V72.0453C115.316 84.7072 105.076 95.009 92.4913 95.009V95Z" fill="url(#paint1_linear_273_101)"/>
<path d="M57.8217 80.6234C57.7499 80.6234 57.6826 80.6234 57.6109 80.6234L57.7095 69.7936C60.9657 69.8162 64.029 68.5617 66.3388 66.2423L100.829 31.5418C105.529 26.8083 105.529 19.1101 100.829 14.3811C98.5507 12.0888 95.5232 10.8298 92.2985 10.8298C92.2581 10.8298 92.2132 10.8298 92.1729 10.8298H92.1056C88.9616 10.8795 86.0014 12.1429 83.7723 14.3811L61.468 36.8214L53.8568 29.1638L76.1611 6.72351C80.3637 2.49086 85.9566 0.108302 91.9038 0.0045166C92.0383 0.0045166 92.1639 0.0045166 92.294 0.0045166C98.3937 0.0045166 104.126 2.39159 108.436 6.72802C117.334 15.6807 117.334 30.2468 108.436 39.1994L73.9455 73.8999C69.6264 78.2409 63.9124 80.6234 57.8217 80.6234Z" fill="url(#paint2_linear_273_101)"/>
<path d="M57.5122 80.6144C51.6681 80.6144 45.8241 78.3762 41.3749 73.8999L6.88013 39.1994C2.56996 34.863 0.197357 29.0961 0.197357 22.9637C0.197357 16.8313 2.56996 11.0645 6.88013 6.72802C11.1903 2.39158 16.9222 0 23.0174 0C29.1127 0 34.8446 2.38707 39.1548 6.72351L73.645 41.424C77.9552 45.7605 80.3278 51.5273 80.3278 57.6597C80.3278 63.7921 77.9552 69.559 73.645 73.8954C69.1958 78.3717 63.3518 80.6099 57.5077 80.6099L57.5122 80.6144ZM23.0174 10.8298C19.7972 10.8298 16.7697 12.0933 14.4913 14.3856C9.79094 19.1146 9.79094 26.8128 14.4913 31.5463L48.9816 66.2468C53.6819 70.9759 61.3335 70.9759 66.0383 66.2468C70.7387 61.5178 70.7387 53.8196 66.0383 49.0861L31.5481 14.3856C29.2696 12.0933 26.2422 10.8298 23.0219 10.8298H23.0174Z" fill="url(#paint3_linear_273_101)"/>
</g>
<defs>
<linearGradient id="paint0_linear_273_101" x1="-1.803" y1="82.2479" x2="53.7637" y2="4.78657" gradientUnits="userSpaceOnUse">
<stop stop-color="#FF3D3D"/>
<stop offset="0.567708" stop-color="#B85EFF"/>
</linearGradient>
<linearGradient id="paint1_linear_273_101" x1="110" y1="85" x2="99.6645" y2="24.0569" gradientUnits="userSpaceOnUse">
<stop stop-color="#FF774C"/>
<stop offset="0.828125" stop-color="#E82C2C"/>
</linearGradient>
<linearGradient id="paint2_linear_273_101" x1="105" y1="14" x2="47.063" y2="56.9995" gradientUnits="userSpaceOnUse">
<stop stop-color="#41DDFF"/>
<stop offset="1" stop-color="#315AC3"/>
</linearGradient>
<linearGradient id="paint3_linear_273_101" x1="0.197357" y1="40.3095" x2="80.3323" y2="40.3095" gradientUnits="userSpaceOnUse">
<stop stop-color="#F090FF"/>
<stop offset="1" stop-color="#7569FF"/>
</linearGradient>
<clipPath id="clip0_273_101">
<rect width="571" height="95" fill="white"/>
</clipPath>
</defs>
</svg>
