<svg width="571" height="95" viewBox="0 0 571 95" fill="none" xmlns="http://www.w3.org/2000/svg">
<g clip-path="url(#clip0_178_351)">
<path d="M188.589 68.2188C187.548 68.2188 186.705 67.3704 186.705 66.3236V45.5258C186.705 40.0613 184.292 37.2545 179.991 37.2545C175.69 37.2545 173.052 40.0613 173.052 45.5258V66.3236C173.052 67.3704 172.209 68.2188 171.169 68.2188H163.472C162.432 68.2188 161.588 67.3704 161.588 66.3236V45.5258C161.588 40.0613 159.175 37.2545 154.874 37.2545C150.573 37.2545 147.936 40.0613 147.936 45.5258V66.3236C147.936 67.3704 147.093 68.2188 146.052 68.2188H138.356C137.315 68.2188 136.472 67.3704 136.472 66.3236V29.4345C136.472 28.3876 137.315 27.5393 138.356 27.5393H146.052C147.093 27.5393 147.936 28.3876 147.936 29.4345V33.3062C150.578 29.8903 154.045 26.7767 159.857 26.7767C165.136 26.7767 169.137 29.1277 171.249 33.2295C174.797 29.0555 179.017 26.7767 184.525 26.7767C193.051 26.7767 198.178 31.9389 198.178 41.7309V66.3236C198.178 67.3704 197.335 68.2188 196.294 68.2188H188.598H188.589Z" fill="white"/>
<path d="M231.511 66.3236V62.4519C228.869 65.8678 225.474 68.9814 219.666 68.9814C210.992 68.9814 205.937 63.2145 205.937 53.8783V29.439C205.937 28.3922 206.78 27.5438 207.821 27.5438H215.517C216.558 27.5438 217.401 28.3922 217.401 29.439V50.2368C217.401 55.7013 219.966 58.5081 224.339 58.5081C228.712 58.5081 231.506 55.7013 231.506 50.2368V29.439C231.506 28.3922 232.35 27.5438 233.39 27.5438H241.087C242.127 27.5438 242.97 28.3922 242.97 29.439V66.3281C242.97 67.375 242.127 68.2233 241.087 68.2233H233.39C232.35 68.2233 231.506 67.375 231.506 66.3281L231.511 66.3236Z" fill="white"/>
<path d="M251.882 66.3236V14.7105C251.882 13.6636 252.725 12.8153 253.766 12.8153H261.462C262.503 12.8153 263.346 13.6636 263.346 14.7105V66.3236C263.346 67.3704 262.503 68.2188 261.462 68.2188H253.766C252.725 68.2188 251.882 67.3704 251.882 66.3236Z" fill="white"/>
<path d="M285.901 68.9047C278.887 68.9047 274.133 66.0979 274.133 56.685V37.408H271.19C270.15 37.408 269.307 36.5596 269.307 35.5127V29.439C269.307 28.3921 270.15 27.5438 271.19 27.5438H274.133V19.0424C274.133 17.9955 274.976 17.1472 276.016 17.1472H283.713C284.753 17.1472 285.596 17.9955 285.596 19.0424V27.5438H293.217C294.257 27.5438 295.1 28.3921 295.1 29.439V35.5127C295.1 36.5596 294.257 37.408 293.217 37.408H285.596V54.7898C285.596 57.4476 286.727 58.7382 289.292 58.7382C290.463 58.7382 291.562 58.5757 292.593 58.2734C293.773 57.9304 294.948 58.8284 294.948 60.0648V65.4301C294.948 66.1521 294.54 66.8064 293.898 67.1313C291.723 68.2323 289.198 68.9047 285.897 68.9047H285.901Z" fill="white"/>
<path d="M302.196 66.3236V29.4345C302.196 28.3876 303.039 27.5393 304.079 27.5393H311.776C312.816 27.5393 313.66 28.3876 313.66 29.4345V66.3236C313.66 67.3704 312.816 68.2188 311.776 68.2188H304.079C303.039 68.2188 302.196 67.3704 302.196 66.3236Z" fill="white"/>
<path d="M336.744 68.9814C331.6 68.9814 325.89 67.411 320.872 63.932C320.033 63.3499 319.809 62.1947 320.365 61.3373L323.253 56.87C323.814 55.9991 324.971 55.7464 325.841 56.3015C329.739 58.8013 333.717 60.1054 337.049 60.1054C340.382 60.1054 341.875 58.8916 341.875 57.0686V56.9152C341.875 54.4108 337.951 53.576 333.502 52.2087C327.846 50.5391 321.432 47.8813 321.432 39.9891V39.8356C321.432 31.5644 328.07 26.9346 336.22 26.9346C340.754 26.9346 345.643 28.2974 349.742 30.6619C350.63 31.1763 350.94 32.318 350.442 33.2204L347.845 37.9495C347.351 38.8519 346.23 39.1904 345.32 38.7121C341.875 36.8981 338.538 35.8151 335.991 35.8151C333.201 35.8151 331.766 37.0289 331.766 38.6218V38.7752C331.766 41.054 335.614 42.1144 339.987 43.6306C345.643 45.5303 352.209 48.2603 352.209 55.6968V55.8502C352.209 64.8841 345.495 68.9814 336.744 68.9814Z" fill="white"/>
<path d="M359.075 66.3236V29.4345C359.075 28.3876 359.919 27.5393 360.959 27.5393H368.656C369.696 27.5393 370.539 28.3876 370.539 29.4345V66.3236C370.539 67.3704 369.696 68.2188 368.656 68.2188H360.959C359.919 68.2188 359.075 67.3704 359.075 66.3236Z" fill="white"/>
<path d="M397.549 80.5151C391.687 80.5151 386.129 79.3058 381.353 77.0992C380.411 76.6615 379.998 75.5379 380.429 74.5858L382.766 69.4371C383.205 68.4624 384.362 68.0518 385.313 68.5256C388.91 70.3125 392.628 71.3278 397.248 71.3278C405.092 71.3278 408.788 67.5329 408.788 60.2453V58.2734C405.393 62.3707 401.697 64.8751 395.584 64.8751C386.156 64.8751 377.63 57.9666 377.63 45.9003V45.7469C377.63 33.604 386.304 26.7722 395.584 26.7722C401.845 26.7722 405.541 29.43 408.636 32.8459V29.43C408.636 28.3831 409.479 27.5348 410.519 27.5348H418.216C419.256 27.5348 420.099 28.3831 420.099 29.43V59.0315C420.099 74.3647 412.556 80.5106 397.544 80.5106L397.549 80.5151ZM408.788 45.7514C408.788 40.2102 404.487 36.3385 398.907 36.3385C393.328 36.3385 389.099 40.2102 389.099 45.7514V45.9049C389.099 51.5228 393.324 55.3178 398.907 55.3178C404.491 55.3178 408.788 51.4461 408.788 45.9049V45.7514Z" fill="white"/>
<path d="M307.928 23.5413C311.098 23.5413 313.669 20.9553 313.669 17.7654C313.669 14.5755 311.098 11.9895 307.928 11.9895C304.757 11.9895 302.187 14.5755 302.187 17.7654C302.187 20.9553 304.757 23.5413 307.928 23.5413Z" fill="white"/>
<path d="M364.807 23.5413C367.978 23.5413 370.548 20.9553 370.548 17.7654C370.548 14.5755 367.978 11.9895 364.807 11.9895C361.637 11.9895 359.067 14.5755 359.067 17.7654C359.067 20.9553 361.637 23.5413 364.807 23.5413Z" fill="white"/>
<path d="M435.986 10.6404H432.115C431.372 10.6404 430.769 11.2465 430.769 11.9942V69.9833C430.769 70.7309 431.372 71.337 432.115 71.337H435.986C436.729 71.337 437.331 70.7309 437.331 69.9833V11.9942C437.331 11.2465 436.729 10.6404 435.986 10.6404Z" fill="white"/>
<path d="M463.851 27.4806C457.59 27.4806 452.827 29.3127 448.992 31.1041C448.338 31.411 448.037 32.1826 448.32 32.8549L449.741 36.2708C450.042 36.9973 450.899 37.3132 451.594 36.9522C455.72 34.8314 459.541 33.8432 463.614 33.8432C469.05 33.8432 475.531 35.7564 475.531 44.8805V44.8896C472.404 44.1405 468.7 43.5268 463.533 43.5268C452.02 43.5268 444.579 49.235 444.579 58.0658V58.2238C444.579 62.5647 446.49 66.2333 450.105 68.837C453.15 71.03 457.294 72.289 461.479 72.289C468.215 72.289 472.727 69.5364 475.531 66.8425V69.9786C475.531 70.7277 476.132 71.3324 476.876 71.3324H480.666C481.411 71.3324 482.012 70.7277 482.012 69.9786V44.7181C482.012 33.7619 475.392 27.4761 463.847 27.4761L463.851 27.4806ZM463.3 49.7314C468.395 49.7314 472.49 50.503 475.611 51.2611V54.8124C475.611 61.1523 469.637 65.931 461.717 65.931C456.577 65.931 451.378 63.2055 451.378 57.9891V57.8312C451.378 52.7592 455.832 49.7314 463.295 49.7314H463.3Z" fill="white"/>
<path d="M513.044 27.1603C507.115 27.1603 502.006 29.6195 497.808 34.4794V11.9895C497.808 11.2404 497.207 10.6358 496.462 10.6358H492.592C491.847 10.6358 491.246 11.2404 491.246 11.9895V69.9786C491.246 70.7277 491.847 71.3324 492.592 71.3324H496.462C497.207 71.3324 497.808 70.7277 497.808 69.9786V65.2541C501.916 69.9245 507.025 72.2845 513.044 72.2845C523.333 72.2845 533.971 63.8462 533.971 49.7224V49.5644C533.971 35.5398 523.333 27.1603 513.044 27.1603ZM527.096 49.7224V49.8803C527.096 59.4286 521.292 65.8452 512.649 65.8452C503.338 65.8452 497.57 57.5198 497.57 49.8036V49.6456C497.57 39.7364 505.397 33.604 512.649 33.604C520.884 33.604 527.096 40.5351 527.096 49.7269V49.7224Z" fill="white"/>
<path d="M556.764 46.1215C550.768 44.3842 546.525 42.8996 546.525 39.5559V39.398C546.525 36.0317 549.736 33.6807 554.338 33.6807C558.137 33.6807 562.272 35.039 565.995 37.5073C566.623 37.9224 567.47 37.7419 567.869 37.1011L569.924 33.8432C570.314 33.2205 570.143 32.3992 569.533 31.9931C565.232 29.1096 559.473 27.3182 554.495 27.3182C546.027 27.3182 539.887 32.5977 539.887 39.8718V40.0297C539.887 48.1521 547.902 50.485 554.342 52.3531L554.683 52.4524C560.958 54.2303 564.362 55.8412 564.362 59.2526V59.4105C564.362 63.1513 560.922 65.764 555.997 65.764C551.073 65.764 546.7 64.0674 542.367 60.7237C541.771 60.2634 540.919 60.3852 540.47 60.9899L538.178 64.0899C537.748 64.672 537.851 65.4888 538.407 65.949C543.058 69.762 549.709 72.1311 555.76 72.1311C564.591 72.1311 571 66.5853 571 58.9412V58.7833C571 50.142 562.084 47.6241 556.76 46.1215H556.764Z" fill="white"/>
<path d="M22.8246 95C10.2394 95 0 84.6981 0 72.0363V22.9637C0 10.3019 10.2394 0 22.8246 0C22.9143 0 23.0085 0 23.1026 0C23.2148 0 23.3314 0 23.448 0.00451242L23.1475 10.8298C23.1026 10.8298 23.0623 10.8298 23.0219 10.8298H22.8246C16.1732 10.8298 10.7642 16.2718 10.7642 22.9592V72.0363C10.7642 78.7282 16.1732 84.1702 22.8246 84.1702C29.4759 84.1702 34.8849 78.7282 34.8849 72.0363V65.1278H45.6491V72.0363C45.6491 84.6981 35.4097 95 22.8246 95Z" fill="url(#paint0_linear_178_351)"/>
<path d="M92.4913 95C79.9062 95 69.6667 84.6982 69.6667 72.0363V65.1323H80.4309V72.0363C80.4309 78.7282 85.8399 84.1702 92.4913 84.1702C99.1427 84.1702 104.552 78.7282 104.552 72.0363V22.9637C104.552 16.2718 99.1427 10.8298 92.4913 10.8298H92.294C92.2536 10.8298 92.2088 10.8298 92.1684 10.8298L91.8679 0.00902902C91.9845 0.00902902 92.1011 0.00902902 92.2132 0.0045166C92.3074 0.0045166 92.4016 0.0045166 92.4913 0.0045166C105.076 0.0045166 115.316 10.3064 115.316 22.9682V72.0453C115.316 84.7072 105.076 95.009 92.4913 95.009V95Z" fill="url(#paint1_linear_178_351)"/>
<path d="M57.8217 80.6234C57.7499 80.6234 57.6826 80.6234 57.6109 80.6234L57.7095 69.7936C60.9657 69.8162 64.029 68.5617 66.3388 66.2423L100.829 31.5418C105.529 26.8083 105.529 19.1101 100.829 14.3811C98.5507 12.0888 95.5232 10.8298 92.2985 10.8298C92.2581 10.8298 92.2132 10.8298 92.1729 10.8298H92.1056C88.9616 10.8795 86.0014 12.1429 83.7723 14.3811L61.468 36.8214L53.8568 29.1638L76.1611 6.72351C80.3637 2.49086 85.9566 0.108302 91.9038 0.0045166C92.0383 0.0045166 92.1639 0.0045166 92.294 0.0045166C98.3937 0.0045166 104.126 2.39159 108.436 6.72802C117.334 15.6807 117.334 30.2468 108.436 39.1994L73.9455 73.8999C69.6264 78.2409 63.9124 80.6234 57.8217 80.6234Z" fill="url(#paint2_linear_178_351)"/>
<path d="M57.5122 80.6144C51.6681 80.6144 45.8241 78.3762 41.3749 73.8999L6.88013 39.1994C2.56996 34.863 0.197357 29.0961 0.197357 22.9637C0.197357 16.8313 2.56996 11.0645 6.88013 6.72802C11.1903 2.39158 16.9222 0 23.0174 0C29.1127 0 34.8446 2.38707 39.1548 6.72351L73.645 41.424C77.9552 45.7605 80.3278 51.5273 80.3278 57.6597C80.3278 63.7921 77.9552 69.559 73.645 73.8954C69.1958 78.3717 63.3518 80.6099 57.5077 80.6099L57.5122 80.6144ZM23.0174 10.8298C19.7972 10.8298 16.7697 12.0933 14.4913 14.3856C9.79094 19.1146 9.79094 26.8128 14.4913 31.5463L48.9816 66.2469C53.6819 70.9759 61.3335 70.9759 66.0383 66.2469C70.7387 61.5178 70.7387 53.8196 66.0383 49.0861L31.5481 14.3856C29.2696 12.0933 26.2422 10.8298 23.0219 10.8298H23.0174Z" fill="url(#paint3_linear_178_351)"/>
</g>
<defs>
<linearGradient id="paint0_linear_178_351" x1="-1.803" y1="82.2479" x2="53.7637" y2="4.78657" gradientUnits="userSpaceOnUse">
<stop stop-color="#2DFFDA"/>
<stop offset="1"/>
</linearGradient>
<linearGradient id="paint1_linear_178_351" x1="107.332" y1="70.9669" x2="77.0082" y2="23.6" gradientUnits="userSpaceOnUse">
<stop stop-color="#59FF8A"/>
<stop offset="1"/>
</linearGradient>
<linearGradient id="paint2_linear_178_351" x1="80.2201" y1="37.1463" x2="47.1873" y2="57.1339" gradientUnits="userSpaceOnUse">
<stop stop-color="#FFC530"/>
<stop offset="1"/>
</linearGradient>
<linearGradient id="paint3_linear_178_351" x1="0.197357" y1="40.3095" x2="80.3323" y2="40.3095" gradientUnits="userSpaceOnUse">
<stop stop-color="#DD8700"/>
<stop offset="1" stop-color="#FF3333"/>
</linearGradient>
<clipPath id="clip0_178_351">
<rect width="571" height="95" fill="white"/>
</clipPath>
</defs>
</svg>
