<svg width="118" height="60" viewBox="0 0 118 60" fill="none" xmlns="http://www.w3.org/2000/svg">
<g clip-path="url(#clip0_532_463)">
<path d="M12.4651 49.9871V58.9863C12.4651 58.9863 12.4883 59.0405 12.5194 59.0405H15.5116C15.5116 59.0405 15.5659 59.0173 15.5659 58.9863V50.0258L16.0155 49.577H21.0852C21.0852 49.577 21.1395 49.6002 21.1395 49.6312V58.9863C21.1395 58.9863 21.1628 59.0405 21.1938 59.0405H24.186C24.186 59.0405 24.2403 59.0173 24.2403 58.9863V25.1561C24.2403 24.6995 23.6744 24.4751 23.3643 24.8156L21.5659 26.7655C15.7131 33.0874 12.4651 41.3825 12.4651 49.9948V49.9871ZM15.7674 46.4122C16.3488 41.3593 18.155 36.5463 21.031 32.3601C21.062 32.3136 21.1318 32.3369 21.1318 32.391V46.4199C21.1318 46.4199 21.1085 46.4741 21.0775 46.4741H15.8217C15.8217 46.4741 15.7597 46.4431 15.7674 46.4122Z" fill="#9296BB"/>
<path d="M61.3411 49.9871V58.9863C61.3411 58.9863 61.3643 59.0405 61.3953 59.0405H64.3876C64.3876 59.0405 64.4418 59.0173 64.4418 58.9863V49.6389L64.5039 49.577H69.9612C69.9612 49.577 70.0155 49.6002 70.0155 49.6312V58.9863C70.0155 58.9863 70.0387 59.0405 70.0697 59.0405H73.062C73.062 59.0405 73.1163 59.0173 73.1163 58.9863V25.1561C73.1163 24.6995 72.5504 24.4751 72.2403 24.8156L70.4418 26.7655C64.5891 33.0874 61.3411 41.3825 61.3411 49.9948V49.9871ZM64.6434 46.4122C65.2248 41.3593 67.0232 36.5463 69.907 32.3601C69.938 32.3136 70.0077 32.3369 70.0077 32.391V46.4199C70.0077 46.4199 69.9845 46.4741 69.9535 46.4741H64.6977C64.6977 46.4741 64.6356 46.4431 64.6434 46.4122Z" fill="#9296BB"/>
<path d="M109.636 10.2141C104.93 16.5282 102.341 24.715 102.341 33.2809V59.4274C102.341 59.4274 102.364 59.4816 102.395 59.4816H105.388C105.388 59.4816 105.442 59.4583 105.442 59.4274V41.576C105.442 41.576 105.465 41.5218 105.496 41.5218H114.845C114.845 41.5218 114.899 41.545 114.899 41.576V59.4274C114.899 59.4274 114.922 59.4816 114.953 59.4816H117.946C117.946 59.4816 118 59.4583 118 59.4274V0.502966C118 0.0154759 117.38 -0.185711 117.093 0.201187L109.636 10.2141ZM105.496 38.4189C105.496 38.4189 105.442 38.3957 105.442 38.3647V33.2809C105.442 25.3804 107.814 17.8437 112.124 12.0635L114.806 8.46531C114.837 8.42662 114.907 8.44209 114.907 8.49626V38.3647C114.907 38.3647 114.884 38.4189 114.853 38.4189H105.504H105.496Z" fill="#9296BB"/>
<path d="M38.5969 44.8414L29.0698 23.9876C29.0465 23.9335 28.969 23.9489 28.969 24.0108V58.9786C28.969 58.9786 28.9922 59.0328 29.0233 59.0328H32.0155C32.0155 59.0328 32.0698 59.0096 32.0698 58.9786V38.2564C32.0698 38.1945 32.1473 38.179 32.1705 38.2332L41.6977 59.0869C41.7209 59.1411 41.7985 59.1256 41.7985 59.0637V24.6531C41.7985 24.6531 41.7752 24.5989 41.7442 24.5989H38.7519C38.7519 24.5989 38.6977 24.6221 38.6977 24.6531V44.8182C38.6977 44.8801 38.6202 44.8955 38.5969 44.8414Z" fill="#9296BB"/>
<path d="M48.5426 24.8156H46.0465C46.0465 24.8156 45.9922 24.8388 45.9922 24.8697V58.9863C45.9922 58.9863 46.0154 59.0405 46.0465 59.0405H48.4418C53.062 59.0405 57.0232 54.6531 58.5503 47.8746L58.6434 47.4491C59.4883 43.6729 59.4728 39.5331 58.5968 35.7802C57.0387 29.1256 53.093 24.8311 48.5426 24.8311V24.8156ZM55.6201 46.7604L55.5271 47.186C54.4495 52.0067 51.9457 55.3727 49.1627 55.8679C49.1317 55.8679 49.093 55.8447 49.093 55.8138V28.0036C49.093 28.0036 49.124 27.9417 49.155 27.9494C51.9302 28.3828 54.4573 31.6946 55.5736 36.4612C56.3488 39.773 56.3643 43.4253 55.6201 46.7526V46.7604Z" fill="#9296BB"/>
<path d="M14.1008 27.0364L14.2093 26.5411C15.186 22.1924 15.1628 17.4104 14.155 13.0771C12.3721 5.45525 7.88372 0.53392 2.70543 0.53392H0.0542636C0.0542636 0.53392 0 0.557134 0 0.588086V58.9863C0 58.9863 0.0232558 59.0405 0.0542636 59.0405H3.04651C3.04651 59.0405 3.10078 59.0173 3.10078 58.9863V39.8504C3.10078 39.8504 3.12403 39.804 3.14729 39.7962C8.15504 39.4558 12.4186 34.5344 14.1008 27.0364ZM3.10078 36.7088V3.70648C3.10078 3.70648 3.13178 3.64457 3.16279 3.65231C6.6124 3.9773 9.77519 7.96234 11.1395 13.7813C12.0465 17.6657 12.0698 21.9525 11.186 25.8679L11.0775 26.3632C9.75194 32.2827 6.58915 36.3529 3.10078 36.7088Z" fill="#9296BB"/>
<path d="M83.0699 23.5001H82.8683C79.7055 23.5001 77.1396 26.0614 77.1396 29.2185V42.5277C77.1396 42.5277 77.1629 42.5819 77.1939 42.5819H85.4032C85.4032 42.5819 85.4575 42.6051 85.4575 42.6361V54.2198C85.4575 55.4733 84.6125 56.6263 83.38 56.8584C81.7443 57.1679 80.3024 55.9144 80.3024 54.3358V52.0918C80.3024 52.0918 80.2792 52.0377 80.2482 52.0377H77.2559C77.2559 52.0377 77.2017 52.0609 77.2017 52.0918V54.096C77.2017 57.0054 79.2869 59.6131 82.1784 59.9613C85.6203 60.3714 88.5582 57.6941 88.5582 54.3358V39.5409C88.5582 39.5409 88.535 39.4867 88.504 39.4867H80.2947C80.2947 39.4867 80.2404 39.4635 80.2404 39.4326V29.2185C80.2404 27.7715 81.4187 26.5953 82.8683 26.5953H83.0699C84.5195 26.5953 85.6978 27.7715 85.6978 29.2185V31.0291C85.6978 31.0291 85.721 31.0833 85.7521 31.0833H88.7443C88.7443 31.0833 88.7986 31.0601 88.7986 31.0291V29.2185C88.7986 26.0614 86.2327 23.5001 83.0699 23.5001Z" fill="#9296BB"/>
<path d="M91.2713 26.9203H93.8217C93.8217 26.9203 93.876 26.9435 93.876 26.9745V56.3322C93.876 56.3322 93.8527 56.3864 93.8217 56.3864H91.2713C91.2713 56.3864 91.217 56.4096 91.217 56.4405V59.4274C91.217 59.4274 91.2403 59.4816 91.2713 59.4816H99.5814C99.5814 59.4816 99.6356 59.4583 99.6356 59.4274V56.4405C99.6356 56.4405 99.6124 56.3864 99.5814 56.3864H97.031C97.031 56.3864 96.9767 56.3632 96.9767 56.3322V26.9745C96.9767 26.9745 97 26.9203 97.031 26.9203H99.5814C99.5814 26.9203 99.6356 26.8971 99.6356 26.8661V23.8793C99.6356 23.8793 99.6124 23.8251 99.5814 23.8251H91.2713C91.2713 23.8251 91.217 23.8483 91.217 23.8793V26.8661C91.217 26.8661 91.2403 26.9203 91.2713 26.9203Z" fill="#9296BB"/>
</g>
<defs>
<clipPath id="clip0_532_463">
<rect width="118" height="60" fill="white"/>
</clipPath>
</defs>
</svg>
