<svg width="220" height="39" viewBox="0 0 220 39" fill="none" xmlns="http://www.w3.org/2000/svg">
<path d="M15.6617 2.79285C16.1136 1.94893 16.786 1.24345 17.6072 0.751609C18.4285 0.259767 19.3678 0 20.3251 0C21.2824 0 22.2217 0.259767 23.043 0.751609C23.8643 1.24345 24.5367 1.94893 24.9885 2.79285L39.9533 30.7995C40.527 31.8545 40.7248 33.0732 40.514 34.2554C40.3032 35.4377 39.6964 36.513 38.7934 37.3046C37.8904 38.0962 36.745 38.5571 35.5453 38.6113C34.3457 38.6656 33.1633 38.3101 32.1925 37.6033L23.379 31.3215C22.4875 30.694 21.424 30.3572 20.3338 30.3572C19.2436 30.3572 18.1801 30.694 17.2887 31.3215L8.38814 37.6033C7.41623 38.2915 6.24052 38.6316 5.05128 38.5686C3.86203 38.5056 2.72884 38.0432 1.83509 37.2561C0.941333 36.469 0.339313 35.4034 0.126452 34.2317C-0.0864095 33.0599 0.102343 31.8506 0.662164 30.7995L15.6617 2.79285Z" fill="white" fill-opacity="0.3"/>
<path d="M39.9533 30.7994L28.3034 9.04834L28.112 9.22235L27.1636 10.1533C26.1682 11.1267 24.988 11.8912 23.6927 12.4018C22.3973 12.9124 21.013 13.1587 19.621 13.1263C18.2291 13.0938 16.8577 12.7833 15.5875 12.213C14.3173 11.6426 13.1741 10.824 12.225 9.80528L12.0249 9.57037L0.662152 30.7994C0.28507 31.4638 0.0626477 32.2046 0.0114324 32.9668C-0.0397829 33.729 0.0815273 34.493 0.366338 35.2018H11.7639L17.2452 31.3214C18.1408 30.6841 19.2128 30.3416 20.3121 30.3416C21.4113 30.3416 22.4833 30.6841 23.379 31.3214L28.8515 35.2192H40.2578C40.5415 34.5068 40.6615 33.7397 40.6088 32.9746C40.5561 32.2096 40.332 31.4662 39.9533 30.7994Z" fill="white" fill-opacity="0.3"/>
<path d="M8.38814 37.6033L17.2452 31.3216C18.1408 30.6843 19.2128 30.3418 20.3121 30.3418C21.4113 30.3418 22.4833 30.6843 23.379 31.3216L32.1925 37.6033C33.1644 38.2915 34.3401 38.6317 35.5294 38.5687C36.7186 38.5057 37.8518 38.0432 38.7456 37.2561C39.6393 36.4691 40.2413 35.4034 40.4542 34.2317C40.667 33.06 40.4783 31.8507 39.9185 30.7996L30.7221 13.5466C29.7596 14.0262 28.8788 14.6546 28.112 15.4085L27.1637 16.3308C26.1687 17.3048 24.9891 18.0699 23.694 18.5812C22.399 19.0925 21.0148 19.3396 19.6229 19.308C18.2309 19.2764 16.8594 18.9667 15.5889 18.3971C14.3184 17.8275 13.1747 17.0096 12.225 15.9914L11.9292 15.6608C11.2796 14.9745 10.532 14.3881 9.7106 13.9207L0.662164 30.7996C0.102343 31.8507 -0.0864095 33.06 0.126452 34.2317C0.339313 35.4034 0.941333 36.4691 1.83509 37.2561C2.72884 38.0432 3.86203 38.5057 5.05128 38.5687C6.24052 38.6317 7.41623 38.2915 8.38814 37.6033V37.6033Z" fill="white" fill-opacity="0.3"/>
<path d="M8.38814 37.6031L17.2452 31.3214C18.1408 30.684 19.2128 30.3416 20.3121 30.3416C21.4113 30.3416 22.4833 30.684 23.379 31.3214L32.1925 37.6031C33.1644 38.2913 34.3401 38.6314 35.5294 38.5684C36.7186 38.5054 37.8518 38.043 38.7456 37.2559C39.6393 36.4688 40.2413 35.4032 40.4542 34.2315C40.667 33.0597 40.4783 31.8505 39.9185 30.7993L33.5498 18.8188C31.4969 19.1853 29.602 20.1615 28.112 21.6204L27.1637 22.5513C26.1682 23.5248 24.988 24.2893 23.6927 24.7998C22.3974 25.3104 21.013 25.5567 19.621 25.5243C18.2291 25.4919 16.8577 25.1813 15.5875 24.611C14.3174 24.0407 13.1741 23.2221 12.225 22.2033L11.9292 21.8901C10.5999 20.4549 8.86848 19.4542 6.96127 19.019L0.662164 30.7993C0.102343 31.8505 -0.0864095 33.0597 0.126452 34.2315C0.339313 35.4032 0.941333 36.4688 1.83509 37.2559C2.72884 38.043 3.86203 38.5054 5.05128 38.5684C6.24052 38.6314 7.41623 38.2913 8.38814 37.6031V37.6031Z" fill="white" fill-opacity="0.3"/>
<path d="M60.7559 10.606C60.8884 10.597 61.0214 10.6147 61.1469 10.6581C61.2725 10.7014 61.388 10.7695 61.4867 10.8584C61.6814 11.0871 61.8265 11.3537 61.9131 11.6414L69.378 30.8867C69.3876 30.956 69.3876 31.0263 69.378 31.0956C69.3796 31.2042 69.3588 31.3121 69.3169 31.4124C69.275 31.5127 69.2129 31.6032 69.1344 31.6785C68.9827 31.8324 68.7763 31.9199 68.5602 31.9221H66.3938C66.2386 31.9416 66.081 31.9285 65.9312 31.8835C65.7813 31.8386 65.6426 31.7628 65.5237 31.6611C65.3777 31.5175 65.2622 31.3459 65.1844 31.1565L63.8794 27.7807H54.2741L52.9603 31.1565C52.8827 31.3439 52.7706 31.5151 52.6297 31.6611C52.5101 31.7615 52.3712 31.8364 52.2216 31.8813C52.072 31.9261 51.9148 31.94 51.7597 31.9221H49.5933C49.3753 31.9168 49.1673 31.8299 49.0103 31.6785C48.9319 31.6032 48.8698 31.5127 48.8279 31.4124C48.7859 31.3121 48.7651 31.2042 48.7667 31.0956C48.7529 31.0266 48.7529 30.9557 48.7667 30.8867L56.223 11.6414C56.3095 11.3537 56.4547 11.0871 56.6493 10.8584C56.748 10.7695 56.8636 10.7014 56.9891 10.6581C57.1147 10.6147 57.2476 10.597 57.3801 10.606H60.7559ZM62.4351 23.9699L59.0854 15.2695L55.7358 23.9699H62.4351Z" fill="white" fill-opacity="0.3"/>
<path d="M76.6951 25.8924L81.7848 11.3627C81.8589 11.1754 81.9681 11.0041 82.1067 10.8581C82.1961 10.7686 82.3039 10.6997 82.4226 10.6561C82.5413 10.6125 82.668 10.5953 82.7941 10.6057H85.1084C85.2157 10.6048 85.322 10.626 85.4208 10.6679C85.5196 10.7098 85.6087 10.7716 85.6826 10.8494C85.7617 10.9223 85.8243 11.0112 85.8663 11.1102C85.9083 11.2092 85.9287 11.3161 85.9262 11.4236V11.528C85.9183 11.5979 85.8977 11.6657 85.8653 11.7281L79.0442 30.869C78.9557 31.1532 78.8107 31.4166 78.6179 31.6434C78.521 31.7355 78.4059 31.8063 78.2801 31.8513C78.1542 31.8962 78.0203 31.9143 77.887 31.9044H75.4509C75.3176 31.9143 75.1837 31.8962 75.0578 31.8513C74.932 31.8063 74.8169 31.7355 74.7201 31.6434C74.5273 31.4166 74.3822 31.1532 74.2937 30.869L67.4726 11.7281C67.4402 11.6657 67.4196 11.5979 67.4117 11.528V11.4236C67.4092 11.3161 67.4296 11.2092 67.4716 11.1102C67.5136 11.0112 67.5762 10.9223 67.6553 10.8494C67.7306 10.7709 67.8211 10.7088 67.9214 10.6669C68.0217 10.625 68.1296 10.6042 68.2382 10.6057H70.5526C70.6772 10.5966 70.8023 10.6144 70.9194 10.658C71.0365 10.7015 71.1428 10.7697 71.2312 10.8581C71.3698 11.0041 71.479 11.1754 71.5531 11.3627L76.6951 25.8924Z" fill="white" fill-opacity="0.3"/>
<path d="M96.0971 10.6058C96.2296 10.5968 96.3625 10.6145 96.4881 10.6578C96.6136 10.7012 96.7292 10.7693 96.8279 10.8581C97.0192 11.0892 97.164 11.3551 97.2542 11.6412L104.71 30.8865C104.72 30.9558 104.72 31.0261 104.71 31.0953C104.699 31.3185 104.603 31.5287 104.441 31.6826C104.279 31.8365 104.064 31.9221 103.84 31.9219H101.648C101.493 31.9403 101.335 31.9267 101.186 31.8818C101.036 31.8369 100.897 31.7617 100.778 31.6609C100.634 31.5171 100.522 31.3454 100.447 31.1562L99.1335 27.7805H89.6153L88.3102 31.1562C88.2324 31.3457 88.117 31.5173 87.9709 31.6609C87.8515 31.7617 87.7127 31.8369 87.563 31.8818C87.4133 31.9267 87.256 31.9403 87.1008 31.9219H84.917C84.7028 31.9092 84.5007 31.8179 84.3498 31.6653C84.1988 31.5127 84.1096 31.3097 84.0992 31.0953C84.0897 31.026 84.0897 30.9558 84.0992 30.8865L91.5642 11.6412C91.6507 11.3535 91.7958 11.0869 91.9905 10.8581C92.0883 10.768 92.2038 10.6991 92.3295 10.6557C92.4553 10.6122 92.5887 10.5953 92.7213 10.6058H96.0971ZM97.7676 23.9697L94.4179 15.2693L91.0682 23.9697H97.7676Z" fill="white" fill-opacity="0.3"/>
<path d="M117.848 28.1111C118.064 28.1132 118.271 28.2008 118.422 28.3547C118.501 28.4299 118.563 28.5205 118.605 28.6208C118.647 28.7211 118.668 28.8289 118.666 28.9376C118.666 28.9376 117.718 31.5477 117.552 31.6782C117.401 31.8321 117.194 31.9197 116.978 31.9218H107.121C106.903 31.9165 106.695 31.8296 106.538 31.6782C106.459 31.603 106.397 31.5124 106.355 31.4121C106.313 31.3118 106.292 31.204 106.294 31.0953V11.4236C106.292 11.3161 106.312 11.2093 106.354 11.1103C106.396 11.0112 106.459 10.9223 106.538 10.8494C106.613 10.771 106.703 10.7089 106.804 10.6669C106.904 10.625 107.012 10.6042 107.121 10.6058H109.626C109.848 10.6054 110.062 10.6899 110.224 10.8419C110.386 10.9939 110.483 11.2021 110.496 11.4236V28.1111H117.848Z" fill="white" fill-opacity="0.3"/>
<path d="M131.786 10.6058C131.919 10.5968 132.052 10.6145 132.177 10.6578C132.303 10.7012 132.418 10.7693 132.517 10.8581C132.708 11.0892 132.853 11.3551 132.943 11.6412L140.4 30.8865C140.409 30.9558 140.409 31.0261 140.4 31.0953C140.389 31.3111 140.299 31.5153 140.146 31.6681C139.993 31.8209 139.789 31.9113 139.573 31.9219H137.381C137.225 31.9403 137.068 31.9267 136.918 31.8818C136.769 31.8369 136.63 31.7617 136.511 31.6609C136.367 31.5171 136.254 31.3454 136.18 31.1562L134.866 27.7805H125.287L123.982 31.1562C123.904 31.3457 123.789 31.5173 123.643 31.6609C123.523 31.7617 123.384 31.8369 123.235 31.8818C123.085 31.9267 122.928 31.9403 122.773 31.9219H120.58C120.366 31.9092 120.164 31.8179 120.013 31.6653C119.862 31.5127 119.773 31.3097 119.762 31.0953C119.753 31.026 119.753 30.9558 119.762 30.8865L127.227 11.6412C127.314 11.3535 127.459 11.0869 127.654 10.8581C127.751 10.768 127.867 10.6991 127.993 10.6557C128.118 10.6122 128.252 10.5953 128.384 10.6058H131.786ZM133.457 23.9697L130.107 15.2693L126.757 23.9697H133.457Z" fill="white" fill-opacity="0.3"/>
<path d="M157.853 10.6058C157.96 10.6049 158.066 10.626 158.165 10.668C158.264 10.7099 158.353 10.7716 158.427 10.8494C158.506 10.9223 158.569 11.0112 158.611 11.1103C158.653 11.2093 158.673 11.3161 158.67 11.4236V23.9087C158.687 25.0688 158.502 26.223 158.122 27.3193C157.776 28.3014 157.214 29.1933 156.478 29.9294C155.702 30.6897 154.765 31.2664 153.737 31.6173C151.257 32.4177 148.587 32.4177 146.107 31.6173C145.085 31.2644 144.155 30.6877 143.384 29.9294C142.65 29.1942 142.094 28.3016 141.757 27.3193C141.388 26.2208 141.208 25.0675 141.226 23.9087V11.4236C141.239 11.2108 141.329 11.0099 141.479 10.8591C141.63 10.7084 141.831 10.6182 142.044 10.6058H144.515C144.622 10.6049 144.728 10.626 144.827 10.668C144.926 10.7099 145.015 10.7716 145.089 10.8494C145.168 10.9223 145.231 11.0112 145.273 11.1103C145.315 11.2093 145.335 11.3161 145.333 11.4236V23.7608C145.316 24.4861 145.431 25.2083 145.672 25.8924C145.859 26.4357 146.176 26.9254 146.594 27.3194C147.012 27.7134 147.52 28 148.073 28.1546C148.678 28.3337 149.305 28.4217 149.935 28.4156C150.568 28.4204 151.198 28.3324 151.806 28.1546C152.356 28.0007 152.862 27.7206 153.285 27.3367C153.706 26.9311 154.032 26.4381 154.242 25.8924C154.49 25.21 154.609 24.4869 154.59 23.7608V11.4236C154.587 11.3161 154.608 11.2093 154.65 11.1103C154.692 11.0112 154.754 10.9223 154.834 10.8494C154.909 10.771 154.999 10.7089 155.1 10.6669C155.2 10.625 155.308 10.6042 155.416 10.6058H157.853Z" fill="white" fill-opacity="0.3"/>
<path d="M175.88 31.9219C175.736 31.9313 175.592 31.9114 175.456 31.8636C175.32 31.8157 175.195 31.7409 175.088 31.6435C174.946 31.5095 174.813 31.3671 174.688 31.2172L166.179 18.5494V31.0954C166.181 31.2041 166.16 31.3119 166.118 31.4122C166.076 31.5125 166.014 31.6031 165.935 31.6783C165.778 31.8297 165.57 31.9166 165.352 31.9219H162.873C162.655 31.9166 162.447 31.8297 162.29 31.6783C162.214 31.6014 162.155 31.5104 162.114 31.4103C162.074 31.3103 162.054 31.2032 162.055 31.0954V11.4237C162.055 11.2068 162.141 10.9988 162.295 10.8454C162.448 10.6921 162.656 10.6059 162.873 10.6059H165.004C165.148 10.5954 165.292 10.6139 165.428 10.6602C165.564 10.7065 165.689 10.7798 165.796 10.8756C165.979 11.0583 166.109 11.1975 166.196 11.3019L174.723 23.9697V11.4237C174.723 11.2068 174.809 10.9988 174.962 10.8454C175.116 10.6921 175.324 10.6059 175.541 10.6059H178.003C178.112 10.6043 178.219 10.6251 178.32 10.667C178.42 10.7089 178.511 10.7711 178.586 10.8495C178.665 10.9224 178.727 11.0113 178.769 11.1104C178.812 11.2094 178.832 11.3162 178.829 11.4237V31.0954C178.831 31.2041 178.81 31.3119 178.768 31.4122C178.726 31.5125 178.664 31.6031 178.586 31.6783C178.429 31.8297 178.221 31.9166 178.003 31.9219H175.88Z" fill="white" fill-opacity="0.3"/>
<path d="M195.456 25.1616C195.476 24.9446 195.576 24.743 195.737 24.5964C195.898 24.4498 196.108 24.3689 196.326 24.3698H198.797C199.016 24.3682 199.227 24.449 199.389 24.596C199.474 24.6674 199.54 24.7589 199.581 24.8622C199.622 24.9654 199.636 25.0773 199.623 25.1877C199.552 26.0486 199.341 26.892 198.997 27.6847C198.623 28.5464 198.065 29.3156 197.361 29.9381C196.551 30.6559 195.612 31.2138 194.595 31.5825C193.291 32.0291 191.917 32.2354 190.54 32.1915C189.274 32.2145 188.014 32.002 186.825 31.5651C185.802 31.1799 184.869 30.5875 184.085 29.825C183.328 29.0659 182.736 28.1598 182.344 27.1627C181.92 26.0836 181.667 24.9444 181.596 23.7869C181.596 23.0126 181.535 22.1599 181.535 21.229C181.535 20.298 181.535 19.4367 181.596 18.671C181.667 17.5107 181.92 16.3687 182.344 15.2866C182.736 14.2894 183.328 13.3833 184.085 12.6243C184.871 11.8645 185.803 11.2724 186.825 10.8842C188.016 10.4548 189.275 10.2454 190.54 10.2664C191.919 10.2311 193.293 10.4463 194.595 10.9016C195.612 11.2702 196.551 11.8282 197.361 12.5459C198.067 13.173 198.626 13.9485 198.997 14.8168C199.335 15.6051 199.547 16.442 199.623 17.2964C199.636 17.4067 199.622 17.5186 199.581 17.6219C199.54 17.7252 199.474 17.8166 199.389 17.888C199.228 18.0382 199.017 18.1222 198.797 18.1229H196.326C196.118 18.1186 195.917 18.0485 195.752 17.9228C195.658 17.8521 195.58 17.7633 195.522 17.6616C195.463 17.56 195.426 17.4476 195.412 17.3312C195.348 16.9103 195.203 16.5057 194.986 16.1392C194.754 15.7366 194.443 15.3845 194.073 15.1039C193.632 14.7723 193.138 14.5191 192.611 14.3556C191.94 14.1513 191.241 14.0544 190.54 14.0685C189.833 14.0535 189.129 14.1777 188.47 14.4339C187.919 14.6569 187.419 14.9883 186.999 15.4084C186.594 15.825 186.283 16.3233 186.086 16.8701C185.868 17.4478 185.739 18.0549 185.703 18.671C185.703 19.4367 185.642 20.2893 185.642 21.229C185.642 22.1686 185.642 22.9691 185.703 23.7869C185.738 24.4061 185.867 25.0164 186.086 25.5966C186.283 26.138 186.594 26.6306 186.999 27.0409C187.417 27.4638 187.917 27.7956 188.47 28.0153C189.129 28.2715 189.833 28.3957 190.54 28.3807C191.241 28.3948 191.94 28.2979 192.611 28.0936C193.144 27.9316 193.644 27.6785 194.09 27.3454C194.467 27.0665 194.784 26.7143 195.021 26.31C195.237 25.9578 195.384 25.5682 195.456 25.1616V25.1616Z" fill="white" fill-opacity="0.3"/>
<path d="M219.173 10.6058C219.282 10.6042 219.39 10.625 219.49 10.6669C219.59 10.7089 219.681 10.771 219.756 10.8494C219.835 10.9223 219.898 11.0112 219.94 11.1103C219.982 11.2093 220.002 11.3161 220 11.4236V31.0953C220.001 31.204 219.981 31.3118 219.939 31.4121C219.897 31.5124 219.835 31.603 219.756 31.6782C219.599 31.8296 219.391 31.9165 219.173 31.9218H216.711C216.488 31.9221 216.273 31.8364 216.111 31.6826C215.949 31.5287 215.852 31.3184 215.841 31.0953V23.0561H206.688V31.0953C206.678 31.3097 206.589 31.5127 206.438 31.6652C206.287 31.8178 206.085 31.9092 205.87 31.9218H203.399C203.293 31.9224 203.187 31.9019 203.089 31.8616C202.99 31.8213 202.901 31.7619 202.825 31.6869C202.744 31.6121 202.68 31.5203 202.638 31.4181C202.596 31.3159 202.577 31.2057 202.582 31.0953V11.4236C202.579 11.3161 202.6 11.2093 202.642 11.1103C202.684 11.0112 202.746 10.9223 202.825 10.8494C202.899 10.7716 202.988 10.7099 203.087 10.668C203.186 10.626 203.292 10.6049 203.399 10.6058H205.87C206.083 10.6182 206.284 10.7084 206.435 10.8591C206.586 11.0099 206.676 11.2108 206.688 11.4236V19.254H215.885V11.4236C215.898 11.2021 215.995 10.9939 216.157 10.8419C216.319 10.6899 216.533 10.6054 216.755 10.6058H219.173Z" fill="white" fill-opacity="0.3"/>
</svg>
