<svg width="220" height="18" viewBox="0 0 220 18" fill="none" xmlns="http://www.w3.org/2000/svg">
<path d="M15.4288 17.4243H4.82184C4.16023 17.4243 3.53567 17.2972 2.94815 17.0485C2.36593 16.7997 1.85252 16.4504 1.41321 16.0164C0.973896 15.577 0.624564 15.0689 0.375797 14.4867C0.12703 13.8992 0 13.2799 0 12.6236H1.79959C1.79959 13.4493 2.09599 14.1585 2.6888 14.7461C3.28161 15.3336 3.99086 15.6247 4.82714 15.6247H15.4341C16.2598 15.6247 16.9691 15.3283 17.5672 14.7461C18.16 14.1585 18.4617 13.4546 18.4617 12.6236C18.4617 11.7979 18.1653 11.0887 17.5672 10.4958C16.9691 9.90304 16.2598 9.60664 15.4341 9.60664H4.82184C4.16023 9.60664 3.53567 9.47961 2.94815 9.23084C2.36064 8.98208 1.85252 8.63804 1.41321 8.19872C0.973896 7.75941 0.629857 7.25129 0.375797 6.66907C0.12703 6.08685 0 5.46758 0 4.81126C0 4.14965 0.12703 3.52508 0.375797 2.94815C0.624564 2.37123 0.973896 1.85781 1.41321 1.4185C1.85252 0.979189 2.36593 0.629857 2.94815 0.38109C3.53037 0.132323 4.16023 0 4.82184 0H15.4288C16.0905 0 16.715 0.12703 17.2972 0.375797C17.8795 0.624564 18.3929 0.973896 18.8322 1.41321C19.2715 1.85252 19.6208 2.36593 19.8696 2.94286C20.1184 3.51979 20.2454 4.14435 20.2454 4.80597H18.4458C18.4458 3.98027 18.1494 3.27102 17.5513 2.67821C16.9585 2.08541 16.244 1.78901 15.4183 1.78901H4.82184C3.98556 1.78901 3.27631 2.08541 2.68351 2.67821C2.09599 3.27631 1.79959 3.98556 1.79959 4.81126C1.79959 5.63695 2.09599 6.3462 2.6888 6.93372C3.28161 7.52123 3.99086 7.81234 4.82714 7.81234H15.4341C16.0958 7.81234 16.7203 7.93937 17.3025 8.18814C17.8848 8.43691 18.3982 8.78624 18.8375 9.22555C19.2768 9.66486 19.6261 10.1783 19.8749 10.7552C20.1237 11.3321 20.2507 11.9567 20.2507 12.6183C20.2507 13.2746 20.1237 13.8939 19.8749 14.4761C19.6261 15.0583 19.2768 15.5665 18.8375 16.0058C18.3982 16.4451 17.8848 16.7891 17.3025 17.0379C16.7203 17.2972 16.0958 17.4243 15.4288 17.4243Z" fill="white" fill-opacity="0.3"/>
<path d="M25.4802 17.4243H23.67V0H25.4802V17.4243Z" fill="white" fill-opacity="0.3"/>
<path d="M49.3141 17.4243H30.9954V0H32.795V15.6247H50.3515L49.3141 17.4243Z" fill="white" fill-opacity="0.3"/>
<path d="M55.5756 17.4243H54.5541L44.1323 0H46.2336L55.0569 14.7725L63.7426 0H65.8227L55.5756 17.4243Z" fill="white" fill-opacity="0.3"/>
<path d="M107.578 17.4243L101.444 9.61193H91.3716V17.4243H89.5614V0H104.99C105.652 0 106.276 0.12703 106.859 0.375797C107.441 0.624564 107.954 0.973896 108.388 1.4185C108.833 1.85781 109.182 2.36593 109.431 2.94286C109.68 3.51979 109.807 4.14435 109.807 4.80597C109.807 5.46229 109.68 6.08156 109.431 6.66378C109.182 7.246 108.833 7.75941 108.388 8.19343C107.949 8.63274 107.441 8.97678 106.859 9.22555C106.276 9.47432 105.652 9.60135 104.99 9.60135H103.725L109.86 17.4137H107.578V17.4243ZM91.3716 1.79959V7.81234H104.99C105.827 7.81234 106.536 7.52123 107.129 6.93901C107.721 6.3462 108.018 5.63695 108.018 4.81126C108.018 3.98556 107.721 3.27631 107.129 2.68351C106.536 2.0907 105.827 1.7943 104.99 1.7943H91.3716V1.79959Z" fill="white" fill-opacity="0.3"/>
<path d="M128.39 17.4242H117.783C117.122 17.4242 116.497 17.2972 115.915 17.0484C115.333 16.7996 114.819 16.4503 114.38 16.0163C113.941 15.577 113.591 15.0688 113.343 14.4866C113.094 13.9044 112.967 13.2851 112.967 12.6288H114.766C114.766 13.4545 115.063 14.1638 115.656 14.7513C116.248 15.3388 116.958 15.6299 117.794 15.6299H128.401C129.227 15.6299 129.936 15.3335 130.534 14.7513C131.132 14.1638 131.428 13.4598 131.428 12.6288C131.428 11.8031 131.132 11.0939 130.534 10.5011C129.941 9.90825 129.227 9.61185 128.401 9.61185H117.794C117.132 9.61185 116.508 9.48482 115.926 9.23605C115.343 8.98728 114.83 8.64324 114.391 8.20393C113.951 7.76462 113.602 7.2565 113.353 6.67428C113.104 6.09206 112.977 5.47279 112.977 4.81646C112.977 4.15485 113.104 3.53029 113.353 2.95336C113.602 2.37643 113.951 1.86302 114.391 1.42371C114.83 0.984394 115.343 0.635062 115.926 0.386295C116.508 0.137528 117.132 0.010498 117.794 0.010498H128.401C129.063 0.010498 129.687 0.137528 130.269 0.386295C130.852 0.635062 131.365 0.984394 131.804 1.42371C132.244 1.86302 132.593 2.37643 132.842 2.95336C133.09 3.53029 133.217 4.15485 133.217 4.81646H131.418C131.418 3.99077 131.122 3.28152 130.523 2.68871C129.931 2.09591 129.216 1.7995 128.39 1.7995H117.783C116.947 1.7995 116.238 2.09591 115.645 2.68871C115.052 3.28152 114.756 3.99077 114.756 4.81646C114.756 5.64216 115.052 6.35141 115.645 6.93892C116.238 7.52644 116.947 7.81755 117.783 7.81755H128.39C129.052 7.81755 129.677 7.94458 130.259 8.19334C130.841 8.44211 131.354 8.79144 131.794 9.23076C132.233 9.67007 132.582 10.1835 132.831 10.7604C133.08 11.3373 133.207 11.9619 133.207 12.6235C133.207 13.2798 133.08 13.8991 132.831 14.4813C132.582 15.0635 132.233 15.5717 131.794 16.011C131.354 16.4503 130.841 16.7943 130.259 17.0431C129.677 17.2972 129.052 17.4242 128.39 17.4242Z" fill="white" fill-opacity="0.3"/>
<path d="M144.158 17.4243H142.369L142.348 1.79959H134.038V0H152.494L151.441 1.79959H144.147L144.158 17.4243Z" fill="white" fill-opacity="0.3"/>
<path d="M165.483 17.4244H159.333C158.359 17.4244 157.448 17.2444 156.591 16.8792C155.733 16.514 154.987 16.0111 154.341 15.3654C153.696 14.7197 153.193 13.9734 152.822 13.1212C152.452 12.2691 152.272 11.364 152.272 10.4007V7.03436C152.272 6.06047 152.457 5.15538 152.822 4.30851C153.193 3.46164 153.696 2.71534 154.341 2.0749C154.987 1.43446 155.733 0.926338 156.591 0.555834C157.443 0.18533 158.359 0.00537109 159.333 0.00537109H165.483C166.446 0.00537109 167.357 0.190623 168.209 0.555834C169.061 0.926338 169.813 1.42917 170.458 2.0749C171.104 2.72064 171.607 3.46164 171.977 4.30851C172.348 5.15538 172.528 6.06576 172.528 7.03436V10.4007C172.528 11.364 172.343 12.2743 171.977 13.1212C171.607 13.9734 171.104 14.7197 170.458 15.3654C169.813 16.0111 169.066 16.514 168.209 16.8792C167.357 17.2391 166.446 17.4244 165.483 17.4244ZM165.483 15.6248C166.203 15.6248 166.88 15.4871 167.51 15.2172C168.14 14.9473 168.701 14.5715 169.183 14.0951C169.664 13.6187 170.045 13.063 170.321 12.4225C170.596 11.7874 170.734 11.1099 170.734 10.4007V7.03436C170.734 6.31453 170.596 5.63703 170.321 5.00718C170.045 4.37732 169.664 3.81627 169.183 3.33461C168.701 2.85296 168.145 2.47716 167.51 2.20722C166.88 1.93728 166.203 1.79967 165.483 1.79967H159.333C158.613 1.79967 157.935 1.93728 157.3 2.20722C156.665 2.47716 156.104 2.85296 155.622 3.33461C155.141 3.81627 154.765 4.37203 154.495 5.00718C154.225 5.63703 154.087 6.31453 154.087 7.03436V10.4007C154.087 11.1152 154.225 11.7874 154.495 12.4225C154.765 13.0577 155.141 13.6135 155.622 14.0951C156.104 14.5715 156.665 14.9473 157.3 15.2172C157.935 15.4871 158.613 15.6248 159.333 15.6248H165.483Z" fill="white" fill-opacity="0.3"/>
<path d="M196.076 17.4243H193.864L177.635 2.0907V17.4243H175.825V0H178.038L194.282 15.3442V0H196.081V17.4243H196.076Z" fill="white" fill-opacity="0.3"/>
<path d="M66.9872 9.57474H76.2974L77.2449 7.77515H66.9872V9.57474Z" fill="white" fill-opacity="0.3"/>
<path d="M69.9722 1.79959H71.1419H73.0897H86.4649L87.5182 0H68.162V1.79959H69.9722Z" fill="white" fill-opacity="0.3"/>
<path d="M71.1418 15.6248H69.972H68.1619V17.4243H86.4648L87.5181 15.6248H73.0896H71.1418Z" fill="white" fill-opacity="0.3"/>
<path d="M199.469 9.57474H208.779L209.726 7.77515H199.469V9.57474Z" fill="white" fill-opacity="0.3"/>
<path d="M202.454 1.79959H203.618H205.572H218.947L220 0H200.644V1.79959H202.454Z" fill="white" fill-opacity="0.3"/>
<path d="M203.618 15.6248H202.454H200.644V17.4243H218.946L220 15.6248H205.571H203.618Z" fill="white" fill-opacity="0.3"/>
</svg>
