<svg width="106" height="82" viewBox="0 0 106 82" fill="none" xmlns="http://www.w3.org/2000/svg">
<g clip-path="url(#clip0_531_260)">
<path d="M52.7 81.28C49.93 77.35 47.28 73.63 44.7 69.86C44.38 69.4 44.35 68.68 44.35 68.08C44.33 52.08 44.34 36.07 44.33 20.07C44.33 18.12 44.56 18.29 42.59 18.29C32.76 18.29 22.93 18.27 13.1 18.31C12.08 18.31 11.45 18.05 10.93 17.15C9.91 15.41 8.75 13.74 7.51 11.82C8.15 11.75 8.58 11.67 9.01 11.67C22.25 11.67 35.49 11.67 48.73 11.64C49.88 11.64 50.18 11.98 50.18 13.09C50.15 30.78 50.22 48.46 50.1 66.15C50.08 68.75 51.8 69.86 53.14 71.58C54.65 69.59 55.98 67.92 55.92 65.24C55.74 58.01 55.92 50.77 55.97 43.53C56.05 33.32 56.16 23.12 56.21 12.91C56.21 11.92 56.53 11.65 57.49 11.65C70.57 11.67 83.65 11.67 96.74 11.67C97.15 11.67 97.56 11.71 98.26 11.75C97.09 13.57 95.97 15.11 95.09 16.77C94.39 18.09 93.44 18.32 92.07 18.32C82.32 18.32 72.57 18.41 62.82 18.41C61.73 18.41 61.53 18.8 61.54 19.78C61.57 35.74 61.57 51.71 61.53 67.67C61.53 68.39 61.27 69.22 60.87 69.82C58.5 73.31 56.05 76.75 53.63 80.21C53.39 80.55 53.1 80.85 52.73 81.3L52.7 81.28Z" fill="white" fill-opacity="0.3"/>
<path d="M0 0H105.49C105.32 0.39 105.23 0.74 105.04 1.02C104.02 2.5 103 3.98 101.9 5.41C101.64 5.75 101.1 6.02 100.66 6.07C99.73 6.17 98.78 6.1 97.84 6.1C67.06 6.1 36.28 6.1 5.5 6.12C4.37 6.12 3.6 5.87 3.01 4.84C2.29 3.58 1.39 2.43 0.59 1.23C0.37 0.9 0.24 0.51 0 0Z" fill="white" fill-opacity="0.3"/>
<path d="M90.92 24.68C82.94 36.94 75.08 49.03 67.22 61.11L66.92 61.07C66.87 60.77 66.77 60.47 66.77 60.16C66.77 57.54 66.73 54.92 66.81 52.3C66.83 51.72 67.13 51.1 67.45 50.59C71.33 44.49 75.23 38.4 79.13 32.31C79.38 31.92 79.6 31.51 79.93 30.94C79.5 30.91 79.18 30.86 78.86 30.86C75.3 30.86 71.74 30.82 68.17 30.86C67.12 30.87 66.66 30.59 66.73 29.47C66.81 28.15 66.76 26.81 66.75 25.48C66.75 24.83 66.94 24.46 67.68 24.46C75.16 24.48 82.63 24.47 90.11 24.48C90.26 24.48 90.41 24.54 90.91 24.66L90.92 24.68Z" fill="white" fill-opacity="0.3"/>
<path d="M16.6 24.49C16.98 24.49 17.37 24.49 17.75 24.49C24.8 24.49 31.84 24.51 38.89 24.47C39.97 24.47 40.36 24.76 40.29 25.85C40.21 27.14 40.24 28.43 40.29 29.72C40.32 30.58 39.99 30.89 39.13 30.88C35.72 30.85 32.32 30.87 28.91 30.87C28.37 30.87 27.84 30.87 27 30.87C28.18 32.73 29.21 34.36 30.25 35.98C33.41 40.92 36.57 45.85 39.7 50.8C40.01 51.3 40.22 51.94 40.23 52.53C40.3 54.99 40.28 57.46 40.28 59.92C40.28 60.3 40.22 60.68 40.19 61.06L39.86 61.19C32.04 49.07 24.21 36.95 16.39 24.83L16.6 24.5V24.49Z" fill="white" fill-opacity="0.3"/>
</g>
<defs>
<clipPath id="clip0_531_260">
<rect width="105.49" height="81.28" fill="white"/>
</clipPath>
</defs>
</svg>
