<svg width="102" height="51" viewBox="0 0 102 51" fill="none" xmlns="http://www.w3.org/2000/svg">
<path d="M0 50.4285V48.2874H2.16761V50.4285H0Z" fill="white" fill-opacity="0.3"/>
<path d="M7.97587 50.589C6.60214 50.589 5.45597 50.1253 4.53719 49.1972C3.62731 48.2606 3.17236 47.1098 3.17236 45.7448C3.17236 44.389 3.63176 43.2433 4.55054 42.3067C5.46933 41.3701 6.63785 40.9014 8.05618 40.9014C8.86786 40.9014 9.55027 41.0349 10.1033 41.3029C10.6564 41.5616 11.1826 41.9362 11.6822 42.4268L10.4513 43.8455C10.0498 43.4793 9.67073 43.2164 9.3139 43.0559C8.96606 42.8863 8.54228 42.8014 8.04282 42.8014C7.25785 42.8014 6.60668 43.087 6.08924 43.6582C5.58079 44.2202 5.32661 44.9157 5.32661 45.7448C5.32661 46.5654 5.58079 47.2618 6.08924 47.8322C6.60668 48.4034 7.25785 48.689 8.04282 48.689C8.54228 48.689 8.97496 48.5999 9.3407 48.421C9.70643 48.2429 10.0944 47.9666 10.5048 47.5919L11.816 48.9964C11.3075 49.5407 10.7545 49.9422 10.1568 50.2009C9.56816 50.4597 8.84115 50.589 7.97587 50.589Z" fill="white" fill-opacity="0.3"/>
<path d="M12.6626 50.4285L16.6767 40.9954H18.5767L22.5909 50.4285H20.4363L19.5804 48.3277H15.6196L14.7633 50.4285H12.6626ZM16.3555 46.5074H18.8445L17.5999 43.4708L16.3555 46.5074Z" fill="white" fill-opacity="0.3"/>
<path d="M24.0364 50.4285V41.0618H27.8626C28.9688 41.0618 29.8433 41.3608 30.485 41.9589C31.1276 42.5561 31.4485 43.3457 31.4485 44.3268C31.4485 45.3701 31.0923 46.1824 30.3783 46.762C29.6643 47.3332 28.7597 47.6188 27.6618 47.6188H26.0969V50.4285H24.0364ZM26.0969 45.7851H27.729C28.2372 45.7851 28.6345 45.6515 28.9201 45.3835C29.2141 45.1164 29.3611 44.7687 29.3611 44.3403C29.3611 43.885 29.2141 43.5372 28.9201 43.2962C28.6253 43.0467 28.2153 42.9215 27.6887 42.9215H26.0969V45.7851Z" fill="white" fill-opacity="0.3"/>
<path d="M33.0674 50.4285V41.0618H35.1279V50.4285H33.0674Z" fill="white" fill-opacity="0.3"/>
<path d="M39.6494 50.4285V42.9618H36.7993V41.0618H44.56V42.9618H41.7099V50.4285H39.6494Z" fill="white" fill-opacity="0.3"/>
<path d="M44.1401 50.4285L48.1545 40.9954H50.0545L54.068 50.4285H51.9143L51.0575 48.3277H47.0969L46.241 50.4285H44.1401ZM47.8327 46.5074H50.3217L49.0776 43.4708L47.8327 46.5074Z" fill="white" fill-opacity="0.3"/>
<path d="M55.5137 50.4285V41.0618H57.5742V48.5554H62.2437V50.4285H55.5137Z" fill="white" fill-opacity="0.3"/>
<path d="M1.68652 16.0639L8.32315 0.379395H12.4832L19.1091 16.0639H14.4818L13.3414 13.2833H7.33473L6.22678 16.0639H1.68652ZM8.60556 9.92702H12.103L10.3652 5.49538L8.60556 9.92702Z" fill="white" fill-opacity="0.3"/>
<path d="M21.9534 16.064V0.488037H26.2659V12.2841H33.8149V16.064H21.9534Z" fill="white" fill-opacity="0.3"/>
<path d="M36.9961 16.064V0.488037H43.6656C45.6497 0.488037 47.2247 0.976827 48.3898 1.95441C49.5557 2.92477 50.1387 4.27523 50.1387 6.00587C50.1387 7.20068 49.8455 8.22539 49.2592 9.07984C48.6796 9.93428 47.8908 10.5715 46.8912 10.9915C45.8992 11.4043 44.7518 11.6107 43.4481 11.6107H41.3078V16.064H36.9961ZM41.3078 8.23262H43.3607C44.1285 8.23262 44.7299 8.0479 45.1642 7.67864C45.606 7.3093 45.8269 6.80605 45.8269 6.16883C45.8269 5.50986 45.606 5.00301 45.1642 4.64819C44.7299 4.29338 44.1218 4.11597 43.3397 4.11597H41.3078V8.23262Z" fill="white" fill-opacity="0.3"/>
<path d="M53.2986 16.064V0.488037H57.6103V6.32087H63.15V0.488037H67.4726V16.064H63.15V10.1443H57.6103V16.064H53.2986Z" fill="white" fill-opacity="0.3"/>
<path d="M70.3069 16.0639L76.9437 0.379395H81.1033L87.7292 16.0639H83.1017L81.9618 13.2833H75.955L74.8471 16.0639H70.3069ZM77.2259 9.92702H80.7237L78.9857 5.49538L77.2259 9.92702Z" fill="white" fill-opacity="0.3"/>
<path d="M1.68652 27.1471C1.68652 26.0247 1.89291 24.9675 2.30568 23.9754C2.72568 22.9761 3.2941 22.1181 4.01095 21.4011C4.73511 20.677 5.6077 20.1049 6.62871 19.6849C7.64973 19.2649 8.73953 19.0549 9.89814 19.0549C12.6715 19.0549 14.8511 20.152 16.437 22.3461L13.2762 24.7901C12.313 23.588 11.169 22.9869 9.84379 22.9869C8.76482 22.9869 7.87417 23.3889 7.17177 24.1927C6.47659 24.9892 6.129 25.974 6.129 27.1471C6.129 28.3274 6.47659 29.3158 7.17177 30.1124C7.87417 30.9089 8.76482 31.3072 9.84379 31.3072C10.6042 31.3072 11.2486 31.1514 11.7772 30.8401C12.313 30.5215 12.8416 30.0472 13.363 29.4172L16.6108 31.7308C16.0822 32.4549 15.521 33.0632 14.9272 33.5556C14.3406 34.048 13.5984 34.4535 12.7004 34.7721C11.8098 35.0907 10.8142 35.25 9.71343 35.25C8.24352 35.25 6.89659 34.9061 5.67288 34.2182C4.4491 33.523 3.47873 32.5562 2.76188 31.318C2.04495 30.0726 1.68652 28.6822 1.68652 27.1471Z" fill="white" fill-opacity="0.3"/>
<path d="M19.803 34.9351V19.3591H27.1672C29.4335 19.3591 31.1244 19.9167 32.2399 21.0319C33.1597 21.9515 33.6192 23.1825 33.6192 24.7249C33.6192 25.8762 33.337 26.8538 32.7717 27.6576C32.2072 28.4614 31.4218 29.0769 30.4146 29.5042L34.1299 34.9351H29.1437L26.0047 30.221H24.1147V34.9351H19.803ZM24.1147 26.843H26.9606C27.6922 26.843 28.2609 26.6764 28.6658 26.3434C29.0715 26.003 29.2748 25.5359 29.2748 24.9422C29.2748 24.3411 29.0681 23.8849 28.6557 23.5736C28.25 23.2549 27.6779 23.0956 26.9387 23.0956H24.1147V26.843Z" fill="white" fill-opacity="0.3"/>
<path d="M35.1387 19.3591H40.0585L43.2522 25.0399L46.4786 19.3591H51.3119L45.3925 29.037V34.9351H41.0581V29.1022L35.1387 19.3591Z" fill="white" fill-opacity="0.3"/>
<path d="M53.9714 34.9351V19.3591H60.641C62.6251 19.3591 64.2001 19.8479 65.366 20.8255C66.5319 21.7958 67.1148 23.1463 67.1148 24.877C67.1148 26.0718 66.8217 27.0964 66.2345 27.9508C65.6558 28.8054 64.8662 29.4426 63.8666 29.8626C62.8745 30.2754 61.7271 30.4817 60.4234 30.4817H58.284V34.9351H53.9714ZM58.284 27.1036H60.3369C61.1047 27.1036 61.7053 26.919 62.1395 26.5497C62.5814 26.1804 62.8023 25.6772 62.8023 25.0399C62.8023 24.381 62.5814 23.874 62.1395 23.5192C61.7053 23.1644 61.0971 22.987 60.3151 22.987H58.284V27.1036Z" fill="white" fill-opacity="0.3"/>
<path d="M69.4053 23.1499V19.3591H83.0695V23.1499H78.3873V34.9351H74.0756V23.1499H69.4053Z" fill="white" fill-opacity="0.3"/>
<path d="M85.0881 27.1471C85.0881 26.0464 85.3023 25 85.7291 24.008C86.1633 23.0087 86.7505 22.147 87.4888 21.4229C88.2272 20.6987 89.1184 20.1231 90.1609 19.6958C91.2033 19.2686 92.3155 19.0549 93.4956 19.0549C94.6758 19.0549 95.7838 19.2686 96.8195 19.6958C97.8619 20.1158 98.749 20.6879 99.4806 21.412C100.219 22.1289 100.799 22.9869 101.219 23.9863C101.645 24.9783 101.859 26.0319 101.859 27.1471C101.859 28.2477 101.642 29.2977 101.208 30.297C100.78 31.2963 100.197 32.158 99.4588 32.8822C98.7204 33.6062 97.8292 34.182 96.7867 34.6092C95.7435 35.0364 94.6322 35.25 93.452 35.25C91.8803 35.25 90.454 34.8916 89.1722 34.1747C87.8904 33.4506 86.8874 32.473 86.1633 31.242C85.4468 30.0038 85.0881 28.6388 85.0881 27.1471ZM89.509 27.1471C89.509 28.2984 89.8853 29.2868 90.6388 30.1124C91.3915 30.9378 92.344 31.3506 93.4956 31.3506C94.6616 31.3506 95.6133 30.9451 96.3525 30.1341C97.0908 29.3158 97.4604 28.3202 97.4604 27.1471C97.4604 25.9957 97.0833 25.0073 96.3306 24.1818C95.5771 23.3563 94.6179 22.9435 93.452 22.9435C92.3003 22.9435 91.3553 23.3527 90.617 24.1709C89.8786 24.9819 89.509 25.974 89.509 27.1471Z" fill="white" fill-opacity="0.3"/>
</svg>
