<svg width="222" height="34" viewBox="0 0 222 34" fill="none" xmlns="http://www.w3.org/2000/svg">
<path fill-rule="evenodd" clip-rule="evenodd" d="M6.27504 6.6396V14.559H0V6.6396H6.27504ZM6.32158 0.682575H20.3764V6.6396H6.32158V0.682575ZM212.863 19.9653L222 32.9265H214.585L208.674 24.3788L206.177 27.016V32.9265H200.127V0H206.177V18.8717L213.902 10.5489H221.822L212.863 19.9653ZM0 32.9265V20.3997H6.32158V14.5978H18.8329V20.3764H6.32158V32.9265H0ZM36.2618 16.5525C35.587 16.4128 34.9898 16.3741 34.4468 16.3741C31.3519 16.3741 28.6682 17.8711 28.6682 22.6956V32.9265H22.6181V10.5489H28.4898V13.8687C29.8549 10.9135 32.942 10.3705 34.8579 10.3705C35.3543 10.3705 35.812 10.4093 36.2618 10.4558V16.5525ZM46.0661 33.5626C41.2881 33.5626 38.3794 30.3358 38.3794 26.8299C38.3794 22.8275 41.3346 20.6014 45.0655 20.0507L50.5649 19.2362C51.8447 19.0501 52.2481 18.414 52.2481 17.6461C52.2481 16.0483 51.0225 14.7297 48.4784 14.7297C45.8412 14.7297 44.3829 16.4128 44.2045 18.3752L38.837 17.235C39.2016 13.7291 42.4283 9.86632 48.4319 9.86632C55.5291 9.86632 58.1663 13.8687 58.1663 18.3752V29.3818C58.1663 30.5608 58.2982 32.1509 58.4378 32.9265H52.8919C52.7522 32.337 52.6592 31.1037 52.6592 30.2428C51.5267 32.019 49.3859 33.5626 46.0661 33.5626ZM44.4295 26.4653C44.4295 27.7839 45.3835 29.056 47.3382 29.056C49.8901 29.056 52.2481 27.8305 52.2481 23.8746V22.874L47.2063 23.6497C45.655 23.8746 44.4295 24.7356 44.4295 26.4653ZM61.8041 32.9265V10.5489H67.575V13.2792C68.8083 11.0919 71.6705 9.91286 74.1293 9.91286C77.1698 9.91286 79.6287 11.2315 80.7689 13.6438C82.5374 10.9135 84.9031 9.91286 87.8584 9.91286C92.0003 9.91286 95.9562 12.4105 95.9562 18.414V32.9265H90.0922V19.6473C90.0922 17.235 88.9055 15.4122 86.1364 15.4122C83.538 15.4122 81.9944 17.4134 81.9944 19.8257V32.9265H75.9908V19.6473C75.9908 17.235 74.7653 15.4122 72.035 15.4122C69.3978 15.4122 67.8465 17.3747 67.8465 19.8257V32.9265H61.8041ZM132.102 24.9218L136.965 10.5489H143.333L148.15 24.9683L152.292 10.5489H158.296L151.291 32.9265H145.241L140.013 17.6461L134.871 32.9265H128.735L121.592 10.5489H127.96L132.102 24.9218ZM181.596 21.7338C181.596 28.6061 176.547 33.6091 169.861 33.6091C163.174 33.6091 158.125 28.6061 158.125 21.7338C158.125 14.8228 163.174 9.86632 169.861 9.86632C176.547 9.86632 181.596 14.8228 181.596 21.7338ZM175.546 21.7338C175.546 17.5065 172.816 15.3735 169.861 15.3735C166.905 15.3735 164.175 17.5065 164.175 21.7338C164.175 25.9224 166.905 28.102 169.861 28.102C172.816 28.102 175.546 25.9689 175.546 21.7338ZM196.147 10.3705C196.644 10.3705 197.102 10.4093 197.551 10.4558V16.5525C196.869 16.4128 196.279 16.3741 195.736 16.3741C192.641 16.3741 189.958 17.8711 189.958 22.6956V32.9265H183.908V10.5489H189.779V13.8687C191.144 10.9135 194.232 10.3705 196.147 10.3705Z" fill="white" fill-opacity="0.3"/>
<path fill-rule="evenodd" clip-rule="evenodd" d="M120.459 26.512C119.319 30.3747 115.774 33.6092 110.267 33.6092C104.131 33.6092 98.7174 29.1958 98.7174 21.6486C98.7174 14.5049 103.992 9.86646 109.724 9.86646C116.635 9.86646 120.777 14.2799 120.777 21.4625C120.777 22.3312 120.684 23.2387 120.684 23.3318H104.674C104.814 26.287 107.312 28.4201 110.313 28.4201C113.137 28.4201 114.68 27.0162 115.409 25.015L120.459 26.512ZM114.82 19.1898C114.727 16.9637 113.269 14.7763 109.817 14.7763C106.676 14.7763 104.946 17.1421 104.814 19.1898H114.82Z" fill="white" fill-opacity="0.3"/>
</svg>
