<svg width="160" height="78" viewBox="0 0 160 78" fill="none" xmlns="http://www.w3.org/2000/svg">
<path d="M112.63 28.703C112.328 28.4056 111.968 28.1649 111.564 27.9862C111.155 27.8074 110.717 27.7163 110.262 27.7163H98.3237C97.8682 27.7163 97.4281 27.8074 97.0207 27.9862C96.6151 28.1649 96.2575 28.4056 95.955 28.703C95.6508 29.0021 95.4084 29.3596 95.2348 29.767C95.0612 30.1744 94.9735 30.6127 94.9735 31.0682V46.7808C94.9735 47.2363 95.0612 47.6746 95.2348 48.082C95.4084 48.4877 95.6508 48.8486 95.9533 49.1512C96.2575 49.4554 96.6168 49.6978 97.0225 49.8697C97.4298 50.0433 97.8682 50.131 98.3237 50.131H110.262C110.717 50.131 111.155 50.0433 111.563 49.8697C111.968 49.6961 112.329 49.4537 112.632 49.1512C112.936 48.8469 113.177 48.4877 113.35 48.082C113.524 47.6729 113.612 47.2363 113.612 46.7808V38.09H104.085V41.6481H110.054V46.5745H98.5299V31.2745H110.054V34.1124H113.612V31.0682C113.612 30.6144 113.524 30.1761 113.349 29.767C113.177 29.3596 112.934 29.0021 112.63 28.703Z" fill="white" fill-opacity="0.3"/>
<path d="M135.782 39.9705C135.504 39.5356 135.16 39.1729 134.761 38.8927C134.493 38.7053 134.203 38.5437 133.893 38.4148C134.552 38.0229 135.059 37.4815 135.403 36.7991C135.808 35.9912 136.014 34.9392 136.014 33.6758V33.277C136.014 29.5865 134.148 27.7163 130.469 27.7163H118.848V50.131H131.1C134.78 50.131 136.647 48.2642 136.647 44.5857V43.4805C136.647 42.7413 136.573 42.0727 136.425 41.4968C136.276 40.9141 136.059 40.4002 135.782 39.9705ZM122.344 37.0586V31.2109H130.378C131.143 31.2109 131.697 31.3862 132.023 31.73C132.353 32.0772 132.52 32.6496 132.52 33.43V34.8722C132.52 35.6147 132.369 36.1665 132.071 36.5086C131.779 36.8455 131.279 37.0311 130.593 37.0586H122.344V37.0586ZM133.147 42.7276V44.431C133.147 45.2011 132.981 45.7684 132.652 46.1156C132.326 46.4594 131.772 46.6347 131.007 46.6347H122.346V40.5411H131.007C131.774 40.5411 132.329 40.7113 132.654 41.0465C132.981 41.3834 133.147 41.9489 133.147 42.7276Z" fill="white" fill-opacity="0.3"/>
<path d="M156.196 27.7148L149.48 45.4437L142.778 27.7148H138.96L147.605 50.1312H151.356L160 27.7148H156.196Z" fill="white" fill-opacity="0.3"/>
<path d="M76.7289 44.493V44.3762C76.7289 44.0461 76.5536 43.7419 76.2682 43.5751L58.0099 32.9385V28.4126V11.9471C58.0099 11.9437 58.0082 11.9402 58.0082 11.9368V11.8148C58.0082 11.4847 57.8329 11.1788 57.5476 11.0137L38.8406 0.126133C38.5535 -0.0406015 38.1994 -0.0423211 37.9124 0.122695L19.1831 10.8814C18.896 11.0464 18.7173 11.3541 18.7173 11.6858V11.8148C18.7173 11.8165 18.7173 11.8165 18.7173 11.8182V32.8079L0.464121 43.307C0.177063 43.472 -0.00170663 43.7797 1.22856e-05 44.1114V44.2352C1.22856e-05 44.2386 1.22856e-05 44.2404 1.22856e-05 44.2438V65.9004C1.22856e-05 66.2304 0.175343 66.5347 0.460683 66.7014L19.1797 77.5959C19.1968 77.6062 19.214 77.6148 19.2312 77.6234C19.2553 77.6354 19.2794 77.6458 19.3051 77.6543C19.3103 77.6561 19.3137 77.6578 19.3189 77.6595C19.367 77.6784 19.4152 77.6904 19.465 77.7007C19.4667 77.7007 19.4684 77.7025 19.4702 77.7025C19.4719 77.7025 19.4753 77.7025 19.477 77.7025C19.5338 77.7128 19.5905 77.7197 19.6472 77.7197C19.6524 77.7197 19.6575 77.7179 19.661 77.7179C19.6627 77.7179 19.6644 77.7179 19.6661 77.7179C19.6713 77.7179 19.6747 77.7162 19.6799 77.7162C19.7177 77.7145 19.7538 77.7128 19.7916 77.7059C19.8002 77.7042 19.8071 77.7025 19.8157 77.7007C19.8483 77.6939 19.8827 77.687 19.9154 77.6784C19.9239 77.675 19.9325 77.6715 19.9411 77.6698C19.9721 77.6595 20.003 77.6492 20.0322 77.6354C20.0374 77.6337 20.0426 77.6303 20.0477 77.6268C20.0769 77.6131 20.1079 77.5976 20.1354 77.5804C20.1388 77.5787 20.1423 77.5753 20.1457 77.5736L38.3679 67.0951L56.6193 77.7162C56.6451 77.7317 56.6709 77.7437 56.6984 77.7558C56.7053 77.7592 56.7122 77.7644 56.7208 77.7678C56.7293 77.7712 56.7379 77.7747 56.7465 77.7781C56.7568 77.7815 56.7672 77.7833 56.7775 77.7867C56.7964 77.7936 56.8136 77.8005 56.8308 77.8056C56.8445 77.809 56.8583 77.8108 56.872 77.8142C56.8961 77.8194 56.9219 77.8262 56.9459 77.8297C56.9683 77.8331 56.9889 77.8348 57.0113 77.8366C57.037 77.8383 57.0628 77.8434 57.0903 77.8434C57.2502 77.8434 57.41 77.8022 57.5527 77.7197L76.2665 66.9575C76.5536 66.7925 76.7324 66.4797 76.7324 66.1479V44.5068C76.7324 44.5051 76.7324 44.5051 76.7324 44.5034C76.7324 44.5016 76.7324 44.4999 76.7324 44.4982C76.7289 44.4982 76.7289 44.4948 76.7289 44.493ZM56.1552 28.9455V33.0691L39.3013 42.7621V23.2421L56.1552 13.5509V28.9455ZM37.438 42.7518L20.5771 32.9402L20.5737 13.4305L37.438 23.2455V42.7518ZM36.5132 44.3676L19.6541 54.0622L2.78294 44.2438L19.642 34.5474L36.5132 44.3676ZM40.2329 44.3796L57.0869 34.6832L73.9512 44.4965L57.092 54.1912L40.2329 44.3796ZM38.3713 21.6366L21.5019 11.8199L38.3627 2.12351L55.2322 11.9402L38.3713 21.6366ZM1.85472 45.8561L18.7173 55.6694V75.0502L1.87363 65.2472L1.85472 45.8561ZM20.5737 75.0588V55.69L37.438 45.9868V65.3589L20.5737 75.0588ZM39.3013 65.3675V45.9885L56.1569 55.7966V75.1722L39.3013 65.3675ZM74.8742 65.4827L58.0117 75.1843V55.8121L74.8742 46.114V65.4827Z" fill="white" fill-opacity="0.3"/>
</svg>
