<svg width="81" height="81" viewBox="0 0 81 81" fill="none" xmlns="http://www.w3.org/2000/svg">
<g clip-path="url(#clip0_531_242)">
<path d="M80.03 80.03C79.88 80.03 79.74 80.03 79.59 80.03C53.22 80.03 26.85 80.03 0.47 80.03H0.02V74.94H2.68V77.51H3.05C27.76 77.51 52.46 77.51 77.17 77.51C77.48 77.51 77.52 77.4 77.52 77.13C77.52 52.5 77.52 27.87 77.52 3.22999C77.52 2.74332 77.2733 2.49999 76.78 2.49999C52.17 2.49999 27.56 2.49999 2.95 2.49999C2.85 2.49999 2.75 2.49999 2.6 2.49999V45.72H0C0 45.59 0 45.46 0 45.32C0 30.36 0 15.39 0 0.42999C0 0.27999 0 0.13999 0 -0.0100098H80.03V80.03Z" fill="white" fill-opacity="0.3"/>
<path d="M46.33 53.2999C46.33 53.2999 46.4 53.3599 46.43 53.3699C47.61 53.9599 48.08 54.8499 47.95 56.2399C47.86 57.2599 47.12 58.0899 45.96 58.3799C45.43 58.5199 44.87 58.5899 44.33 58.5999C42.69 58.6299 41.06 58.6099 39.42 58.6099C39.36 58.6099 39.3 58.6099 39.22 58.5899V48.4499C39.3 48.4499 39.37 48.4399 39.44 48.4399C41.07 48.4399 42.69 48.4399 44.32 48.4399C45.16 48.4399 45.93 48.6499 46.63 49.1499C47.86 50.0299 47.8 52.1799 46.63 53.0599C46.54 53.1299 46.45 53.1999 46.33 53.2799V53.2999ZM41.77 56.4999C42.71 56.4999 43.61 56.5499 44.51 56.4799C45.09 56.4399 45.36 56.0299 45.34 55.4599C45.32 54.9199 45.03 54.5599 44.45 54.5199C43.61 54.4599 42.77 54.4699 41.92 54.4699C41.87 54.4699 41.77 54.5599 41.77 54.6099C41.76 55.2399 41.77 55.8699 41.77 56.4999ZM41.78 52.4399C42.56 52.4399 43.33 52.4799 44.09 52.4299C44.61 52.3999 44.89 52.0099 44.9 51.5199C44.91 50.9999 44.68 50.6799 44.14 50.5799C43.84 50.5199 43.52 50.5199 43.21 50.5199C42.74 50.5199 42.26 50.5199 41.78 50.5199V52.4499V52.4399Z" fill="white" fill-opacity="0.3"/>
<path d="M6.54002 55.43L8.52002 58.61C8.26002 58.61 8.06002 58.61 7.86002 58.61C7.25002 58.61 6.63002 58.61 6.02002 58.61C5.82002 58.61 5.70002 58.55 5.59002 58.37C5.13002 57.61 4.66002 56.87 4.20002 56.11C4.10002 55.95 4.00002 55.87 3.80002 55.88C3.42002 55.89 3.04002 55.88 2.63002 55.88V58.57H0.0200195V48.46C0.0900195 48.46 0.17002 48.44 0.25002 48.43C1.67002 48.43 3.08002 48.41 4.50002 48.43C5.60002 48.45 6.58002 48.78 7.38002 49.57C8.77002 50.94 8.75002 54.11 6.71002 55.28C6.66002 55.31 6.61002 55.35 6.54002 55.4V55.43ZM2.62002 50.76C2.62002 51.65 2.62002 52.55 2.62002 53.46C2.62002 53.53 2.63002 53.6 2.64002 53.66C3.29002 53.66 3.93002 53.71 4.55002 53.65C5.28002 53.58 5.68002 53.08 5.70002 52.33C5.73002 51.45 5.39002 50.89 4.63002 50.78C3.99002 50.7 3.33002 50.76 2.62002 50.76V50.76Z" fill="white" fill-opacity="0.3"/>
<path d="M34.7 48.46H37.24C37.24 48.55 37.26 48.64 37.26 48.73C37.26 50.56 37.26 52.4 37.26 54.23C37.26 55.18 37.09 56.1 36.6 56.93C35.81 58.26 34.57 58.8 33.09 58.81C32.5 58.81 31.88 58.74 31.31 58.58C29.77 58.14 29.03 56.96 28.72 55.47C28.63 55.01 28.59 54.54 28.59 54.07C28.58 52.31 28.59 50.55 28.59 48.79C28.59 48.69 28.59 48.59 28.59 48.47H31.2C31.2 48.6 31.2 48.71 31.2 48.82C31.2 50.55 31.19 52.28 31.2 54.01C31.2 54.47 31.27 54.95 31.4 55.39C31.61 56.09 32.17 56.45 32.92 56.46C33.68 56.46 34.23 56.14 34.46 55.43C34.6 54.99 34.68 54.52 34.69 54.06C34.72 52.32 34.7 50.58 34.7 48.84C34.7 48.73 34.7 48.61 34.7 48.47V48.46Z" fill="white" fill-opacity="0.3"/>
<path d="M17.35 58.59H9.95996V48.47H17.16V50.64H12.54V52.37H16.6V54.51H12.54V56.4H17.34V58.59H17.35Z" fill="white" fill-opacity="0.3"/>
<path d="M23.64 69.5399V72.1699H21.03V62.1099C21.13 62.1099 21.22 62.0899 21.31 62.0899C22.67 62.0899 24.04 62.0799 25.4 62.0899C26.47 62.0999 27.48 62.3399 28.29 63.0899C29.47 64.1899 29.68 65.5699 29.25 67.0499C28.84 68.4599 27.77 69.2099 26.36 69.4399C25.64 69.5499 24.89 69.5099 24.15 69.5399C24 69.5399 23.84 69.5399 23.64 69.5399V69.5399ZM23.64 64.3799C23.64 65.2999 23.64 66.2199 23.64 67.1499C23.64 67.1999 23.77 67.2999 23.85 67.2999C24.39 67.2999 24.93 67.3099 25.47 67.2699C26.24 67.2099 26.7 66.7399 26.75 66.0299C26.81 65.0899 26.47 64.5099 25.64 64.3999C25 64.3099 24.34 64.3799 23.63 64.3799H23.64Z" fill="white" fill-opacity="0.3"/>
<path d="M21.6 58.6H19.02V48.4701C19.11 48.4701 19.19 48.4501 19.27 48.4501C20.67 48.4501 22.06 48.4301 23.46 48.4501C24.61 48.4701 25.67 48.8 26.44 49.71C27.45 50.9 27.55 52.2701 27.04 53.6801C26.55 55.0401 25.46 55.72 24.07 55.87C23.27 55.96 22.45 55.89 21.6 55.89V58.5901V58.6ZM21.6 50.7501V53.6501C22.25 53.6501 22.88 53.7 23.51 53.64C24.27 53.56 24.67 53.0301 24.69 52.2401C24.71 51.4501 24.32 50.8601 23.56 50.7701C22.93 50.6901 22.28 50.7501 21.61 50.7501H21.6Z" fill="white" fill-opacity="0.3"/>
<path d="M53.45 72.1901C52.58 72.1901 51.74 72.1901 50.9 72.1801C50.82 72.1801 50.7 72.0501 50.66 71.9601C50.46 71.4701 50.27 70.9701 50.1 70.4701C50.04 70.2801 49.95 70.2101 49.75 70.2101C48.6 70.2101 47.46 70.2201 46.31 70.2101C46.09 70.2101 46 70.2901 45.94 70.4801C45.77 70.9801 45.58 71.4801 45.38 71.9701C45.35 72.0601 45.24 72.1801 45.16 72.1801C44.33 72.1901 43.5 72.1801 42.62 72.1801C42.86 71.5801 43.09 71.0301 43.31 70.4701C44.42 67.7601 45.52 65.0601 46.62 62.3501C46.7 62.1501 46.79 62.0601 47.02 62.0701C47.71 62.0901 48.4 62.0801 49.08 62.0701C49.25 62.0701 49.34 62.1101 49.41 62.2801C50.74 65.5401 52.07 68.7901 53.4 72.0401C53.41 72.0701 53.41 72.1001 53.43 72.1801L53.45 72.1901ZM49.23 68.1101L48.05 64.9601L47.98 64.9801L46.82 68.1201H49.23V68.1101Z" fill="white" fill-opacity="0.3"/>
<path d="M20.07 72.2001C19.2 72.2001 18.36 72.2001 17.52 72.1901C17.44 72.1901 17.32 72.0601 17.28 71.9601C17.08 71.4701 16.89 70.9701 16.72 70.4701C16.66 70.2801 16.57 70.2101 16.37 70.2101C15.21 70.2101 14.06 70.2101 12.9 70.2101C12.72 70.2101 12.64 70.2701 12.58 70.4301C12.4 70.9301 12.21 71.4201 12.03 71.9201C11.96 72.1101 11.88 72.2001 11.65 72.1901C10.94 72.1701 10.23 72.1901 9.53 72.1901C9.45 72.1901 9.37 72.1801 9.25 72.1701C9.57 71.4001 9.87 70.6501 10.18 69.9001C11.21 67.3901 12.23 64.8701 13.25 62.3601C13.33 62.1601 13.43 62.0801 13.66 62.0801C14.35 62.1001 15.03 62.0901 15.72 62.0801C15.89 62.0801 15.98 62.1201 16.05 62.2901C17.38 65.5401 18.71 68.8001 20.04 72.0501C20.05 72.0801 20.05 72.1101 20.07 72.1901V72.2001ZM15.85 68.1201L14.64 64.8701L13.44 68.1201H15.85Z" fill="white" fill-opacity="0.3"/>
<path d="M7.53003 68.8701L9.11003 70.5401C8.30003 71.9101 6.06003 72.7901 3.82003 72.2501C1.51003 71.6901 0.0800343 69.7701 0.0200343 67.2501C-0.0499657 64.7001 1.46003 62.6801 3.81003 62.0601C5.83003 61.5301 8.33003 62.3401 9.11003 63.7601L7.54003 65.4201C7.30003 65.2001 7.09003 64.9701 6.85003 64.8001C5.27003 63.6301 3.22003 64.3901 2.77003 66.3001C2.62003 66.9401 2.64003 67.5801 2.82003 68.2201C3.34003 69.9901 5.42003 70.6501 6.87003 69.5001C7.09003 69.3301 7.28003 69.1201 7.52003 68.8901L7.53003 68.8701Z" fill="white" fill-opacity="0.3"/>
<path d="M69.3 55.33L70.9 56.94C70.24 57.84 69.36 58.43 68.26 58.67C66.23 59.11 64.45 58.69 63.07 57.05C62.03 55.81 61.75 54.34 61.92 52.77C62.08 51.38 62.66 50.2 63.76 49.31C65.68 47.77 68.88 47.89 70.53 49.68C70.66 49.82 70.78 49.98 70.9 50.12L69.22 51.81C69.22 51.81 69.17 51.69 69.13 51.64C68.36 50.73 67.33 50.41 66.28 50.74C65.3 51.05 64.62 51.97 64.53 53.14C64.47 53.99 64.56 54.81 65.11 55.51C66.03 56.68 67.71 56.79 68.82 55.78C68.98 55.63 69.15 55.49 69.31 55.34L69.3 55.33Z" fill="white" fill-opacity="0.3"/>
<path d="M43.04 64.3401H40.2V72.1701H37.58V64.3501H34.72V62.1101H43.04V64.3401V64.3401Z" fill="white" fill-opacity="0.3"/>
<path d="M57.01 69.9301H61.46V72.1701H54.42V62.1101H57.01V69.9301V69.9301Z" fill="white" fill-opacity="0.3"/>
<path d="M52.11 48.47V56.33H56.5V58.59H49.53V48.47H52.11Z" fill="white" fill-opacity="0.3"/>
<path d="M60.31 58.6H57.74V48.48H60.31V58.6Z" fill="white" fill-opacity="0.3"/>
<path d="M30.91 62.1101H33.5V72.1801H30.91V62.1101V62.1101Z" fill="white" fill-opacity="0.3"/>
</g>
<defs>
<clipPath id="clip0_531_242">
<rect width="80.03" height="80.03" fill="white"/>
</clipPath>
</defs>
</svg>
